<svg preserveAspectRatio="none" overflow="visible" style="display: block;" width="58" height="58" viewBox="0 0 58 58" fill="none" xmlns="http://www.w3.org/2000/svg">
<g id="Layer_1" clip-path="url(#clip0_0_26)">
<path id="Vector" d="M29.0073 37.3116C33.5936 37.3116 37.3116 33.5936 37.3116 29.0073C37.3116 24.4209 33.5936 20.7029 29.0073 20.7029C24.4209 20.7029 20.7029 24.4209 20.7029 29.0073C20.7029 33.5936 24.4209 37.3116 29.0073 37.3116Z" fill="#F3F3F4"/>
<path id="Vector_2" d="M29.0073 42.5091C36.4641 42.5091 42.5091 36.4641 42.5091 29.0073C42.5091 21.5504 36.4641 15.5054 29.0073 15.5054C21.5504 15.5054 15.5054 21.5504 15.5054 29.0073C15.5054 36.4641 21.5504 42.5091 29.0073 42.5091Z" stroke="#F3F3F4" stroke-width="0.5" stroke-linecap="round" stroke-linejoin="round"/>
<path id="Vector_3" d="M29.0073 0V1.45181" stroke="#F3F3F4" stroke-width="0.5" stroke-miterlimit="10"/>
<path id="Vector_4" d="M29.0073 4.35544V55.1109" stroke="#F3F3F4" stroke-width="0.5" stroke-miterlimit="10" stroke-dasharray="2 2"/>
<path id="Vector_5" d="M29.0073 56.5482V58" stroke="#F3F3F4" stroke-width="0.5" stroke-miterlimit="10"/>
<path id="Vector_6" d="M58 29.0073H56.5482" stroke="#F3F3F4" stroke-width="0.5" stroke-miterlimit="10"/>
<path id="Vector_7" d="M53.6591 29.0073H2.90363" stroke="#F3F3F4" stroke-width="0.5" stroke-miterlimit="10" stroke-dasharray="2 2"/>
<path id="Vector_8" d="M1.45181 29.0073H0" stroke="#F3F3F4" stroke-width="0.5" stroke-miterlimit="10"/>
<path id="Vector_9" d="M49.4633 8.97221L8.44956 49.986" stroke="#F3F3F4" stroke-width="0.75" stroke-miterlimit="10" stroke-linecap="square"/>
<path id="Vector_10" d="M49.4633 49.986L8.44956 8.97221" stroke="#F3F3F4" stroke-width="0.75" stroke-miterlimit="10" stroke-linecap="square"/>
</g>
<defs>
<clipPath id="clip0_0_26">
<rect width="58" height="58" fill="white"/>
</clipPath>
</defs>
</svg>
