<?xml version="1.0" encoding="UTF-8"?>
<svg id="Layer_7" xmlns="http://www.w3.org/2000/svg" version="1.1" viewBox="0 0 3077.9 1510.8">
  <!-- Generator: Adobe Illustrator 30.8.1, SVG Export Plug-In . SVG Version: 2.1.4 Build 1)  -->
  <defs>
    <style>
      .st0 {
        fill: #f3f3f4;
        filter: drop-shadow(0 0 9px rgba(243, 243, 244, .8));
      }

      .st1 {
        fill: #f3f3f4;
        opacity: .82;
      }

      .st2 {
        fill: #f3f3f4;
        filter: drop-shadow(0 0 5px rgba(243, 243, 244, .68));
      }

      #TEN .st0, #GRAND .st0 {
        filter:
          drop-shadow(0 0 10px rgba(243, 243, 244, .95))
          drop-shadow(0 0 22px rgba(243, 243, 244, .72));
        animation: starFlashLarge 4.8s ease-in-out infinite;
      }

      #TEN .st2, #GRAND .st2 {
        filter:
          drop-shadow(0 0 7px rgba(243, 243, 244, .9))
          drop-shadow(0 0 14px rgba(243, 243, 244, .58));
        animation: starFlashSmall 4.1s ease-in-out infinite;
      }

      #TEN .st0:nth-child(3n), #TEN .st2:nth-child(3n),
      #GRAND .st0:nth-child(3n), #GRAND .st2:nth-child(3n) { animation-delay: -1.7s; }
      #TEN .st0:nth-child(4n), #TEN .st2:nth-child(4n),
      #GRAND .st0:nth-child(4n), #GRAND .st2:nth-child(4n) { animation-delay: -3.2s; }
      #TEN .st0:nth-child(5n), #TEN .st2:nth-child(5n),
      #GRAND .st0:nth-child(5n), #GRAND .st2:nth-child(5n) { animation-delay: -4.4s; }

      @keyframes starFlashLarge {
        0%, 100% {
          filter:
            drop-shadow(0 0 0 rgba(243, 243, 244, 0))
            drop-shadow(0 0 0 rgba(243, 243, 244, 0));
        }
        42%, 58% {
          filter:
            drop-shadow(0 0 10px rgba(243, 243, 244, .95))
            drop-shadow(0 0 22px rgba(243, 243, 244, .72));
        }
      }

      @keyframes starFlashSmall {
        0%, 100% {
          filter:
            drop-shadow(0 0 0 rgba(243, 243, 244, 0))
            drop-shadow(0 0 0 rgba(243, 243, 244, 0));
        }
        44%, 56% {
          filter:
            drop-shadow(0 0 7px rgba(243, 243, 244, .9))
            drop-shadow(0 0 14px rgba(243, 243, 244, .58));
        }
      }

      @media (prefers-reduced-motion: reduce) {
        .st0, .st2 { animation: none; }
      }
    </style>
  </defs>
  <g id="GRAND">
    <circle class="st0" cx="1862.8" cy="985.2" r="7.5"/>
    <circle class="st0" cx="1867.2" cy="1182.5" r="7.5"/>
    <circle class="st0" cx="2013" cy="1148.8" r="7.5"/>
    <circle class="st0" cx="1599.2" cy="1297.9" r="7.5"/>
    <circle class="st0" cx="1463.4" cy="1299.2" r="7.5"/>
    <circle class="st2" cx="1529" cy="1172.0" r="3.8"/>
    <circle class="st2" cx="1484.6" cy="1091.2" r="3.8"/>
    <circle class="st2" cx="1567" cy="1089.1" r="3.8"/>
    <circle class="st2" cx="1929.4" cy="997.9" r="3.8"/>
    <circle class="st2" cx="2003.2" cy="1090.6" r="3.8"/>
    <circle class="st2" cx="1863.6" cy="1114.6" r="3.8"/>
    <circle class="st1" cx="1176.5" cy="989.4" r="2.2"/>
    <circle class="st1" cx="1085.7" cy="1236.7" r="2.2"/>
    <circle class="st1" cx="1328.2" cy="1159.1" r="2.2"/>
    <circle class="st1" cx="1295.2" cy="1029.5" r="2.2"/>
    <circle class="st1" cx="1298.5" cy="1257.0" r="2.2"/>
    <circle class="st1" cx="1370.3" cy="1226.9" r="2.2"/>
    <circle class="st1" cx="1158.5" cy="1305.5" r="2.2"/>
    <circle class="st1" cx="1471.6" cy="1223.8" r="2.2"/>
    <circle class="st1" cx="1318.9" cy="1340.7" r="2.2"/>
    <circle class="st1" cx="1492.2" cy="1048.2" r="2.2"/>
    <circle class="st1" cx="1572.6" cy="1128.2" r="2.2"/>
    <circle class="st1" cx="1593" cy="1219.5" r="2.2"/>
    <circle class="st1" cx="1889.5" cy="1354.5" r="2.2"/>
    <circle class="st1" cx="1682.2" cy="1495.7" r="2.2"/>
    <circle class="st1" cx="1633.7" cy="1311" r="2.2"/>
    <circle class="st1" cx="1862.8" cy="1049.9" r="2.2"/>
    <circle class="st1" cx="1865.7" cy="1260.8" r="2.2"/>
    <circle class="st1" cx="1979.9" cy="1044.8" r="2.2"/>
    <circle class="st1" cx="1329.1" cy="980.8" r="2.2"/>
    <circle class="st1" cx="1163" cy="1148.5" r="2.2"/>
    <circle class="st2" cx="2012.7" cy="1308.4" r="3.8"/>
    <circle class="st2" cx="1996" cy="1222.5" r="3.8"/>
    <circle class="st2" cx="1360" cy="1136.9" r="3.8"/>
    <circle class="st2" cx="1216.5" cy="1298.3" r="3.8"/>
    <circle class="st2" cx="1066.1" cy="1348" r="3.8"/>
    <circle class="st2" cx="1218.6" cy="1201.2" r="3.8"/>
    <circle class="st0" cx="1517.9" cy="985.2" r="7.5"/>
    <circle class="st0" cx="1296.2" cy="983.8" r="7.5"/>
    <circle class="st0" cx="1300.5" cy="1300.6" r="7.5"/>
    <circle class="st0" cx="1411.7" cy="1297.8" r="7.5"/>
    <circle class="st0" cx="1400.1" cy="1055.3" r="7.5"/>
    <circle class="st0" cx="1292.8" cy="1177.5" r="7.5"/>
    <circle class="st0" cx="1215.8" cy="1149.2" r="7.5"/>
    <circle class="st0" cx="1074.2" cy="1141.7" r="7.5"/>
    <circle class="st0" cx="1113.5" cy="1020.0" r="7.5"/>
    <circle class="st0" cx="1231.4" cy="983.8" r="7.5"/>
    <circle class="st0" cx="1099.1" cy="861.2" r="7.5"/>
    <circle class="st0" cx="1966.1" cy="855.4" r="7.5"/>
    <circle class="st1" cx="1393" cy="1106.0" r="2.2"/>
    <circle class="st1" cx="1944.7" cy="1287.5" r="2.2"/>
    <circle class="st0" cx="1655.8" cy="985.3" r="7.5"/>
    <circle class="st0" cx="1784.4" cy="984.4" r="7.5"/>
    <circle class="st0" cx="1790.2" cy="1119.0" r="7.5"/>
    <circle class="st0" cx="1740.7" cy="1170.4" r="7.5"/>
    <circle class="st0" cx="1659.1" cy="1298.5" r="7.5"/>
    <circle class="st0" cx="1798.1" cy="1300.4" r="7.5"/>
    <path class="st2" d="M1707.3,1017.6c2.1,0,3.8,1.7,3.8,3.8s-1.7,3.8-3.8,3.8-3.8-1.7-3.8-3.8,1.7-3.8,3.8-3.8Z"/>
    <circle class="st2" cx="1659.9" cy="1241.9" r="3.8"/>
    <circle class="st2" cx="1792.4" cy="1028.1" r="3.8"/>
    <circle class="st2" cx="1796.8" cy="1241.9" r="3.8"/>
    <circle class="st2" cx="1496.5" cy="1336.3" r="3.8"/>
    <circle class="st2" cx="1658.9" cy="1105.9" r="3.8"/>
    <circle class="st1" cx="1657.8" cy="1177.9" r="2.2"/>
    <circle class="st1" cx="1724" cy="1120.5" r="2.2"/>
    <path class="st1" d="M1789.5,1019.8c1.2,0,2.2,1,2.2,2.2s-1,2.2-2.2,2.2-2.2-1-2.2-2.2,1-2.2,2.2-2.2Z"/>
    <circle class="st1" cx="1657.1" cy="1036.8" r="2.2"/>
    <circle class="st1" cx="1683.2" cy="1035.4" r="2.2"/>
    <circle class="st1" cx="1763.3" cy="1223.7" r="2.2"/>
    <circle class="st1" cx="1794.6" cy="1170.6" r="2.2"/>
    <circle class="st2" cx="1376.9" cy="990.7" r="3.8"/>
    <circle class="st0" cx="1136.7" cy="1288.7" r="7.5"/>
    <circle class="st2" cx="1080.1" cy="1071.2" r="3.8"/>
    <circle class="st2" cx="1160.9" cy="543.3" r="3.8"/>
    <circle class="st2" cx="1994.3" cy="511.1" r="3.8"/>
    <circle class="st2" cx="1935.2" cy="218.6" r="3.8"/>
    <circle class="st2" cx="2018.9" cy="141.9" r="3.8"/>
    <circle class="st2" cx="1586.7" cy="144.6" r="3.8"/>
    <circle class="st2" cx="1855.3" cy="781.4" r="3.8"/>
    <circle class="st2" cx="1135.2" cy="298.6" r="3.8"/>
    <circle class="st2" cx="1197.9" cy="129.5" r="3.8"/>
    <circle class="st1" cx="1219.8" cy="1253.4" r="2.2"/>
    <circle class="st1" cx="1482.2" cy="1128.9" r="2.2"/>
    <circle class="st1" cx="1554.3" cy="1047.4" r="2.2"/>
    <circle class="st2" cx="1295.2" cy="1083.7" r="3.8"/>
    <circle class="st1" cx="1252.3" cy="797.0" r="2.2"/>
    <circle class="st1" cx="1173.1" cy="843.0" r="2.2"/>
    <circle class="st1" cx="1103" cy="699.2" r="2.2"/>
    <circle class="st1" cx="1236.6" cy="688.5" r="2.2"/>
    <circle class="st1" cx="1927.1" cy="684.8" r="2.2"/>
    <circle class="st1" cx="2022" cy="770.2" r="2.2"/>
    <circle class="st1" cx="2008.7" cy="290.5" r="2.2"/>
    <circle class="st1" cx="1725.4" cy="92.8" r="2.2"/>
    <circle class="st1" cx="1106.2" cy="437.6" r="2.2"/>
    <circle class="st1" cx="1233.5" cy="309.4" r="2.2"/>
    <circle class="st1" cx="1231.6" cy="477.3" r="2.2"/>
    <circle class="st1" cx="1115.8" cy="172.4" r="2.2"/>
    <circle class="st2" cx="1897.5" cy="94.5" r="3.8"/>
    <circle class="st2" cx="1586.7" cy="32.3" r="3.8"/>
    <circle class="st2" cx="1197.9" cy="17.2" r="3.8"/>
    <circle class="st1" cx="1763.1" cy="17.6" r="2.2"/>
    <circle class="st1" cx="2020.8" cy="44.3" r="2.2"/>
    <circle class="st1" cx="1456.9" cy="102.5" r="2.2"/>
    <circle class="st1" cx="1115.8" cy="60.1" r="2.2"/>
    <circle class="st1" cx="1398.9" cy="38.2" r="2.2"/>
    <circle class="st1" cx="1278.5" cy="74.2" r="2.2"/>
    <circle class="st2" cx="1896.5" cy="1451" r="3.8"/>
    <circle class="st2" cx="1632.2" cy="1408.4" r="3.8"/>
    <circle class="st2" cx="1167.6" cy="1415.2" r="3.8"/>
    <circle class="st2" cx="1482.6" cy="1477.7" r="3.8"/>
    <circle class="st1" cx="1757.4" cy="1418.6" r="2.2"/>
    <circle class="st1" cx="1994" cy="1462.1" r="2.2"/>
    <circle class="st1" cx="1057.7" cy="1483.9" r="2.2"/>
    <circle class="st1" cx="1407.1" cy="1421" r="2.2"/>
    <circle class="st1" cx="1272.4" cy="1478" r="2.2"/>
    <circle class="st1" cx="1923.4" cy="395.2" r="2.2"/>
    <circle class="st0" cx="1477.7" cy="1174.1" r="7.5"/>
    <circle class="st0" cx="1582.9" cy="1171.3" r="7.5"/>
    <circle class="st0" cx="1869.6" cy="1298.6" r="7.5"/>
  </g>
  <g id="TEN" transform="translate(0, 8.4)">
    <circle class="st0" cx="1244.7" cy="206.9" r="7.5"/>
    <circle class="st0" cx="1393.9" cy="205.5" r="7.5"/>
    <circle class="st0" cx="1319.9" cy="521.9" r="7.5"/>
    <circle class="st0" cx="1459.6" cy="205" r="7.5"/>
    <circle class="st0" cx="1613.1" cy="204.1" r="7.5"/>
    <circle class="st0" cx="1529.9" cy="346.6" r="7.5"/>
    <circle class="st0" cx="1613.5" cy="521.2" r="7.5"/>
    <circle class="st0" cx="1460.4" cy="521.6" r="7.5"/>
    <circle class="st0" cx="1673.8" cy="203.6" r="7.5"/>
    <circle class="st0" cx="1826.6" cy="201.8" r="7.5"/>
    <circle class="st0" cx="1682" cy="521.6" r="7.5"/>
    <circle class="st0" cx="1828.7" cy="522.5" r="7.5"/>
    <circle id="bright_star" class="st0" cx="1757.3" cy="360.9" r="7.5"/>
    <circle class="st2" cx="1456.7" cy="346" r="3.8"/>
    <circle class="st2" cx="1318.9" cy="205.5" r="3.8"/>
    <circle class="st2" cx="1514.2" cy="204.3" r="3.8"/>
    <circle class="st2" cx="1520.3" cy="522.2" r="3.8"/>
    <circle class="st2" cx="1319.7" cy="453.8" r="3.8"/>
    <circle class="st2" cx="1828.2" cy="257.5" r="3.8"/>
    <circle class="st2" cx="1682.5" cy="345.6" r="3.8"/>
    <circle class="st2" cx="1828.3" cy="409.4" r="3.8"/>
    <circle class="st2" cx="1319.7" cy="322.5" r="3.8"/>
    <circle class="st1" cx="1319.7" cy="376.2" r="2.2"/>
    <circle class="st1" cx="1457" cy="421.1" r="2.2"/>
    <circle class="st1" cx="1572.7" cy="522" r="2.2"/>
    <circle class="st1" cx="1562.5" cy="204.5" r="2.2" transform="translate(1110.3709 1714.1052) rotate(-80.7825)"/>
    <circle class="st1" cx="1361.4" cy="205.5" r="2.2"/>
    <circle class="st1" cx="1284.6" cy="206.4" r="2.2"/>
    <circle class="st1" cx="1681.5" cy="425.3" r="2.2"/>
    <circle class="st1" cx="1804.5" cy="465.1" r="2.2"/>
    <circle class="st1" cx="1829.3" cy="338.4" r="2.2"/>
    <circle class="st1" cx="1319.7" cy="244.9" r="2.2"/>
    <circle class="st1" cx="1495.6" cy="347.1" r="2.2"/>
    <circle class="st1" cx="1725.7" cy="285" r="2.2"/>
  </g>
  <circle class="st1" cx="209.4" cy="951.5" r="2.2"/>
  <circle class="st1" cx="204.3" cy="1107.1" r="2.2"/>
  <circle class="st0" cx="145.7" cy="1497.3" r="7.5"/>
  <circle class="st0" cx="28.3" cy="1150.4" r="7.5"/>
  <circle class="st0" cx="571.9" cy="509.9" r="7.5"/>
  <circle class="st0" cx="40.9" cy="818.9" r="7.5"/>
  <circle class="st2" cx="53.8" cy="988.3" r="3.8"/>
  <circle class="st2" cx="805" cy="288" r="3.8"/>
  <circle class="st2" cx="38.5" cy="340.2" r="3.8"/>
  <circle class="st2" cx="201.5" cy="171.3" r="3.8"/>
  <circle class="st1" cx="176.7" cy="826.4" r="2.2"/>
  <circle class="st1" cx="46.5" cy="594.1" r="2.2"/>
  <circle class="st1" cx="109.8" cy="479.4" r="2.2"/>
  <circle class="st1" cx="63.7" cy="157.9" r="2.2"/>
  <circle class="st2" cx="232.4" cy="54.6" r="3.8"/>
  <circle class="st1" cx="43.6" cy="24.9" r="2.2"/>
  <circle class="st1" cx="252.3" cy="278" r="2.2"/>
  <circle class="st1" cx="689.3" cy="657.9" r="2.2"/>
  <circle class="st2" cx="695.5" cy="1094.1" r="3.8"/>
  <circle class="st2" cx="249.1" cy="464" r="3.8"/>
  <circle class="st2" cx="528.3" cy="179.5" r="3.8"/>
  <circle class="st0" cx="367.6" cy="361.8" r="7.5"/>
  <circle class="st1" cx="730.1" cy="456.3" r="2.2"/>
  <circle class="st2" cx="403.3" cy="664.3" r="3.8"/>
  <circle class="st1" cx="224.7" cy="635.2" r="2.2"/>
  <circle class="st1" cx="429.7" cy="500.4" r="2.2"/>
  <circle class="st1" cx="346.2" cy="1320.1" r="2.2"/>
  <circle class="st1" cx="341.8" cy="1170.6" r="2.2"/>
  <circle class="st1" cx="125.3" cy="1229.6" r="2.2"/>
  <circle class="st2" cx="677.4" cy="1489.4" r="3.8"/>
  <circle class="st2" cx="264.4" cy="1267.2" r="3.8"/>
  <circle class="st2" cx="353.2" cy="1416.6" r="3.8"/>
  <circle class="st2" cx="43.4" cy="1398.4" r="3.8"/>
  <circle class="st1" cx="219.8" cy="1383.7" r="2.2"/>
  <circle class="st1" cx="398.5" cy="1504.7" r="2.2"/>
  <circle class="st2" cx="1082.1" cy="150.5" r="3.8"/>
  <circle class="st2" cx="651.9" cy="270.1" r="3.8"/>
  <circle class="st1" cx="826.3" cy="138.5" r="2.2"/>
  <circle class="st1" cx="495.1" cy="298.5" r="2.2"/>
  <circle class="st2" cx="959.7" cy="59.1" r="3.8"/>
  <circle class="st2" cx="649.9" cy="40.9" r="3.8"/>
  <circle class="st2" cx="396.8" cy="150.2" r="3.8"/>
  <circle class="st1" cx="826.3" cy="26.2" r="2.2"/>
  <circle class="st1" cx="1057.2" cy="70.2" r="2.2"/>
  <circle class="st1" cx="645.6" cy="134.6" r="2.2"/>
  <circle class="st1" cx="470.3" cy="29.2" r="2.2"/>
  <circle class="st1" cx="341.6" cy="82.8" r="2.2"/>
  <circle class="st2" cx="987" cy="1126.6" r="3.8"/>
  <circle class="st2" cx="956.5" cy="1417.5" r="3.8"/>
  <circle class="st1" cx="842.4" cy="1150.2" r="2.2"/>
  <circle class="st1" cx="444.1" cy="1012.8" r="2.2"/>
  <circle class="st2" cx="933.9" cy="1245.8" r="3.8"/>
  <circle class="st2" cx="701.8" cy="791.8" r="3.8"/>
  <circle class="st2" cx="518.1" cy="761.1" r="3.8"/>
  <circle class="st1" cx="793.3" cy="969.1" r="2.2"/>
  <circle class="st1" cx="962" cy="1046.3" r="2.2"/>
  <circle class="st1" cx="433.9" cy="900.5" r="2.2"/>
  <circle class="st1" cx="862.5" cy="427.9" r="2.2"/>
  <circle class="st1" cx="342.1" cy="808.7" r="2.2"/>
  <circle class="st1" cx="813.2" cy="544.7" r="2.2"/>
  <circle class="st1" cx="941.5" cy="663.3" r="2.2"/>
  <circle class="st2" cx="1012.3" cy="543.8" r="3.8"/>
  <circle class="st2" cx="834.9" cy="719.2" r="3.8"/>
  <circle class="st0" cx="982.4" cy="208.7" r="7.5"/>
  <circle class="st1" cx="1014.6" cy="347.8" r="2.2"/>
  <circle class="st2" cx="992.3" cy="917" r="3.8"/>
  <circle class="st1" cx="870.1" cy="864.8" r="2.2"/>
  <circle class="st1" cx="990.6" cy="767.1" r="2.2"/>
  <circle class="st2" cx="329.5" cy="1064.6" r="3.8"/>
  <circle class="st1" cx="538.2" cy="1377.2" r="2.2"/>
  <circle class="st2" cx="801.2" cy="1370.7" r="3.8"/>
  <circle class="st2" cx="507.9" cy="1136.1" r="3.8"/>
  <circle class="st1" cx="719.6" cy="1265.3" r="2.2"/>
  <circle class="st1" cx="605.2" cy="1193.5" r="2.2"/>
  <circle class="st1" cx="497.4" cy="1275.2" r="2.2"/>
  <circle class="st0" cx="882.7" cy="1486.9" r="7.5"/>
  <circle class="st0" cx="617.8" cy="951.2" r="7.5"/>
  <circle class="st1" cx="2862.7" cy="940.2" r="2.2"/>
  <circle class="st1" cx="2867.8" cy="1095.8" r="2.2"/>
  <circle class="st0" cx="2926.5" cy="1486" r="7.5"/>
  <circle class="st0" cx="3043.8" cy="1139" r="7.5"/>
  <circle class="st0" cx="2514" cy="587.2" r="7.5"/>
  <circle class="st0" cx="2369" cy="397.9" r="7.5"/>
  <circle class="st0" cx="3031.2" cy="807.6" r="7.5"/>
  <circle class="st2" cx="3018.3" cy="977" r="3.7"/>
  <circle class="st2" cx="2267.2" cy="276.7" r="3.8"/>
  <circle class="st2" cx="2043.9" cy="394.1" r="3.8"/>
  <circle class="st2" cx="3033.6" cy="328.9" r="3.8"/>
  <circle class="st2" cx="2870.6" cy="160" r="3.8"/>
  <circle class="st1" cx="2895.4" cy="815.1" r="2.2"/>
  <circle class="st1" cx="3025.6" cy="582.8" r="2.2"/>
  <circle class="st1" cx="2962.4" cy="468.1" r="2.2"/>
  <circle class="st1" cx="3008.4" cy="146.6" r="2.2"/>
  <circle class="st2" cx="2839.7" cy="43.3" r="3.8"/>
  <circle class="st1" cx="3028.5" cy="13.6" r="2.2"/>
  <circle class="st1" cx="2898.1" cy="288.5" r="2.2"/>
  <circle class="st1" cx="2460.3" cy="694.5" r="2.2"/>
  <circle class="st2" cx="2376.7" cy="1082.7" r="3.7"/>
  <circle class="st2" cx="2823.1" cy="452.7" r="3.8"/>
  <circle class="st2" cx="2543.8" cy="168.2" r="3.8"/>
  <circle class="st0" cx="2704.6" cy="350.4" r="7.5"/>
  <circle class="st1" cx="2508.7" cy="421" r="2.2"/>
  <circle class="st2" cx="2668.8" cy="653" r="3.8"/>
  <circle class="st1" cx="2847.4" cy="623.9" r="2.2"/>
  <circle class="st1" cx="2642.5" cy="489.1" r="2.2"/>
  <circle class="st1" cx="2725.9" cy="1308.8" r="2.2"/>
  <circle class="st1" cx="2730.4" cy="1159.3" r="2.2"/>
  <circle class="st1" cx="2946.9" cy="1218.3" r="2.2"/>
  <circle class="st2" cx="2394.7" cy="1478.1" r="3.8"/>
  <circle class="st2" cx="2807.8" cy="1255.8" r="3.8"/>
  <circle class="st2" cx="2718.9" cy="1405.3" r="3.7"/>
  <circle class="st2" cx="3028.7" cy="1387.1" r="3.8"/>
  <circle class="st1" cx="2852.3" cy="1372.4" r="2.2"/>
  <circle class="st1" cx="2673.6" cy="1493.4" r="2.2"/>
  <circle class="st2" cx="2420.2" cy="258.8" r="3.8"/>
  <circle class="st2" cx="2125.9" cy="503.5" r="3.8"/>
  <circle class="st1" cx="2245.9" cy="127.2" r="2.2"/>
  <circle class="st1" cx="2577" cy="287.2" r="2.2"/>
  <circle class="st2" cx="2112.5" cy="47.8" r="3.7"/>
  <circle class="st2" cx="2422.3" cy="29.6" r="3.8"/>
  <circle class="st2" cx="2721.3" cy="195.5" r="3.8"/>
  <circle class="st1" cx="2245.9" cy="16.4" r="2.2" transform="translate(0 9.3) rotate(-.2)"/>
  <circle class="st1" cx="2426.5" cy="123.3" r="2.2"/>
  <circle class="st1" cx="2601.9" cy="17.9" r="2.2"/>
  <circle class="st1" cx="2730.5" cy="71.5" r="2.2"/>
  <circle class="st2" cx="2085.2" cy="1115.3" r="3.8"/>
  <circle class="st2" cx="2115.6" cy="1406.2" r="3.7"/>
  <circle class="st1" cx="2229.8" cy="1138.9" r="2.2"/>
  <circle class="st1" cx="2517.1" cy="986.9" r="2.2"/>
  <circle class="st2" cx="2138.3" cy="1234.4" r="3.8"/>
  <circle class="st2" cx="2195.8" cy="824.9" r="3.8"/>
  <circle class="st2" cx="2365.8" cy="787.5" r="3.8"/>
  <circle class="st1" cx="2226.3" cy="952.7" r="2.2" transform="translate(-3.9 9.2) rotate(-.2)"/>
  <circle class="st1" cx="2110.1" cy="1035" r="2.2"/>
  <circle class="st1" cx="2599.2" cy="829.2" r="2.2"/>
  <circle class="st1" cx="2209.7" cy="416.6" r="2.2"/>
  <circle class="st1" cx="2149" cy="301.1" r="2.2"/>
  <circle class="st1" cx="2730.1" cy="797.4" r="2.2"/>
  <circle class="st1" cx="2309" cy="532.4" r="2.2"/>
  <circle class="st1" cx="2130.6" cy="652" r="2.2"/>
  <circle class="st2" cx="2244.2" cy="646.1" r="3.8"/>
  <circle class="st0" cx="2089.8" cy="197.4" r="7.5"/>
  <circle class="st1" cx="2069.3" cy="881.7" r="2.2"/>
  <circle class="st2" cx="2749.1" cy="936.4" r="3.8"/>
  <circle class="st1" cx="2447.8" cy="1357.1" r="2.2"/>
  <circle class="st2" cx="2270.9" cy="1359.4" r="3.8"/>
  <circle class="st2" cx="2620.8" cy="1058.5" r="3.8"/>
  <circle class="st1" cx="2352.5" cy="1254" r="2.2"/>
  <circle class="st1" cx="2517.2" cy="1146.7" r="2.2"/>
  <circle class="st1" cx="2574.8" cy="1263.8" r="2.2"/>
  <circle class="st0" cx="2189.5" cy="1475.6" r="7.5"/>
  <circle class="st0" cx="2378.4" cy="926.9" r="7.5"/>
</svg>
