<?xml version="1.0" encoding="UTF-8"?>
<svg xmlns="http://www.w3.org/2000/svg" version="1.1" viewBox="0 0 707.7 445.4">
  <defs>
    <style>
      .st0 { fill: #0c0c0c; stroke: #fff; }
      .st0, .st1, .st2 { stroke-miterlimit: 10; }
      .st3 { fill: #fff; }
      .st1 { stroke-width: .7px; }
      .st1, .st2 { fill: none; stroke: #000; }
      .st2 { stroke-width: .8px; }
    </style>
  </defs>
  <g id="car">
    <g>
      <path class="st3" d="M364.3,269.7h74c3.6,0,6.5-2.9,6.5-6.5v-29.1c0-3.6-2.9-6.5-6.5-6.5h-74c-3.6,0-6.5,2.9-6.5,6.5v29.1c0,3.6,2.9,6.5,6.5,6.5ZM359.3,234.1c0-2.8,2.3-5.1,5.1-5.1h74c2.8,0,5.1,2.3,5.1,5.1v29.1c0,2.8-2.3,5.1-5.1,5.1h-74c-2.8,0-5.1-2.3-5.1-5.1v-29.1Z"/>
      <path class="st3" d="M463.2,85.6c-1.8-2.8-4.8-4.5-8.1-4.5l-235.3-.9c-3.3,0-6.4,1.7-8.1,4.5l-54,81,313.2,1.3-7.6-81.3h0ZM159.6,164.7l52.9-79.4c1.6-2.5,4.3-4,7.3-4l235.3.9c2.9,0,5.6,1.5,7.2,3.9l7.4,79.9-310.1-1.3Z"/>
      <path class="st3" d="M58.2,269.5h74c3.6,0,6.5-2.9,6.5-6.5v-29.1c0-3.6-2.9-6.5-6.5-6.5H58.2c-3.6,0-6.5,2.9-6.5,6.5v29.1c0,3.6,2.9,6.5,6.5,6.5ZM53.1,233.9c0-2.8,2.3-5.1,5.1-5.1h74c2.8,0,5.1,2.3,5.1,5.1v29.1c0,2.8-2.3,5.1-5.1,5.1H58.2c-2.8,0-5.1-2.3-5.1-5.1v-29.1Z"/>
      <path class="st3" d="M669.2,136.4l-1-1.7c-3.5-5.6-10.1-6.6-17.7-7.1-.2-5-4.3-8.9-9.3-8.9h-21.8c-1.9,0-3.7.6-5.2,1.6l-.2.2-61.3-70.8c-3.7-4.4-9-6.9-14.7-6.9s-.1,0-.2,0c-7.6,0-185.8-.2-191.9.5l-95.7,5.7c-25.5,2.8-36.4,9.1-41,13.8-.4.4-.8.8-1.1,1.2-.4.5-.9.9-1.4,1.5-13.6,13.8-86.4,110.7-91.6,117.5h-22.8c-3.5,0-6.9,1.2-9,3.1l-38.6,23v.2c-1.4.2-2.4,2.3-2.4,5.1v67.2c0,2.1.6,3.8,1.6,4.6-.7,0-1.3.4-1.8,1-.6.9-.8,2.1-.5,3.2l20.4,43.4c.4,1.2,1.3,2,2.4,2h9.6c-6.7,23.8-.9,59.4-.9,59.7,1.5,16,8.3,21.8,13.7,23.9,1.8.7,3.9,1,6.4,1l45.5-.3h0s0,0,0,0c8.9,0,15.9-24.6,15.9-55.9s-.8-19.9-2.2-28.5c2.1.3,4.1.7,6.1,1.4l28.3,10.1c2.6.9,5.3,1.4,8,1.4l95.2.3h0c0,0,47.3,0,47.3,0,1.9,0,3.7-.5,5.5-1.4l18.8-10.1c2-1.1,4.1-1.6,6.2-1.6h74.5c.8,0,1.4-.6,1.7-1.5l.5,1.1,44.7-18.6.6-21c2.7-29,10.6-39.3,16.8-42.7,6.3-3.5,12-.8,12.1-.8h.1c17.9,5.5,18.1,53.4,18.1,53.9v1.3l60.8-40.5c0,5.4.2,25.8,9.4,29.2h.1s41.2-.3,41.2-.3h0c0,0,0,0,0,0,9,0,14.3-27.8,14.3-54.6s-5.4-54.6-14.3-54.6-14.3,27.8-14.3,54.6,4.1,47.6,11.1,53.3h-8.4c-1-1.5-3.6-6-3.9-12.4h-.7c.3,6.2,2.6,10.6,3.8,12.5h-8c-1-1.8-5.6-10.9-4.5-21.9h-.7c-1,10.6,3.1,19.4,4.4,21.9h-7.2c-1.6-1.5-5.1-6.5-4.2-18.3h-.7c-.9,11,2.1,16.2,3.9,18.3h-7.2c-1.1-1.3-4.7-6.8-3.7-15.9h-.7c-1,8.6,2.1,14,3.5,15.9h-3.4c-8.9-3.5-8.4-26.1-8.3-28.8l27.8-18.5.3-.2v-.4c-1.7-26.6,2.5-43,6.4-52,4.2-9.8,8.8-13.3,8.9-13.3,3-2.4,5.8-2.8,7.9-2.9,4-.1,8.9,1,11.7,10.6l3,14.7,7.7-7.5,1-42.1c.1-6.4-1.6-12.6-4.9-18ZM635.7,241.3c0-31.8,6.7-53.2,12.9-53.2s12.9,21.4,12.9,53.2-6.7,53.2-12.9,53.2-12.9-21.4-12.9-53.2ZM619.4,119.5h21.8c4.7,0,8.6,3.9,8.6,8.6v10.3c0,4.7-3.9,8.6-8.6,8.6h-21.8c-4.7,0-8.6-3.9-8.6-8.6v-10.3c0-1.2.3-2.4.7-3.5h0s0,0,0,0c1.4-3,4.4-5.1,7.8-5.1ZM43.7,281.5v-67.2c0-2.2.8-3.7,1.4-3.7l412.6.2c.2.2.8,1.4.8,3.7v67.1c0,2.3-.6,3.6-.7,3.7l-162.6-.2h0c0-.1-250.1,0-250.1,0-.6,0-1.4-1.5-1.4-3.7ZM125.6,418.8h0c0-.1-4.2-2.5-5.5-14.1h-.7c1.1,9.4,3.9,12.9,5.2,14.1h-7.2c-.8-1.4-6.5-11.8-5.5-28.7h-.7c-.9,16,4.1,26.3,5.4,28.7h-9.3c0,0,0,0,0,0,0-.1-5-10.4-4.2-23.2h-.7c-.8,11.8,3.4,21.5,4.1,23.2h-9c-.9-1.7-3.9-7.9-3.7-16.1h-.7c-.2,7.9,2.5,14,3.6,16.2h-3.5c-2.3,0-4.2-.3-5.9-.9-7.3-2.7-11.7-10.6-12.8-22.8,0-.4-5.8-35.8.9-59.4h-.5c0-.1,50.2-.1,50.2-.1-1.4,8.6-2.2,18.4-2.2,28.4,0,27.1,5.2,49.1,12.3,54.6h-9.8ZM153.4,364.2c0,29.5-6.6,54.5-14.5,54.5s-14.5-25-14.5-54.5.8-19.9,2.2-28.4h7.1l15.5-.4c.7,0,1.3,0,2,0,1.5,8.6,2.2,18.5,2.2,28.7ZM443,333.5c-.1.7-.4.9-.5,1h-74.5c-2.3,0-4.7.6-6.9,1.8l-18.8,10.1c-1.6.8-3.2,1.3-4.8,1.3h-44,0c0,0-98.5-.4-98.5-.4-2.6,0-5.1-.4-7.5-1.3l-28.3-10.1c-2.2-.8-4.5-1.3-6.8-1.5,0,0,0,0,0-.1h-.4c-.9,0-1.9,0-2.8,0l-15.5.4h-69.2c-.5,0-.9-.4-1.1-1.1l-20.4-43.4c-.2-.6,0-1.4.3-1.9.1-.2.4-.5.8-.5h246.2c0,.1,165.9.1,165.9.1,0,0,0,0,.2.2.3.4.5,1.3.3,2.2l-13.6,43.5ZM671.7,195.9l-5.5,5.3-2.5-12.2c-2.3-8.2-6.6-11.9-13.1-11.7-2.3,0-5.4.5-8.8,3.2-.8.6-19,14.7-15.8,66.1l-61,40.6,1.9-53.5c7.1-59.5-10.2-78.2-12.9-80.8l52.4-19.7-59.2-73.6-.2-.3-23.8,7.2-35,10.9,7.7,97.4,57.3-21.6-.4.5c.2.2,20.3,17.5,12.8,79.9l-1.9,54h.8s-25.9,17.3-25.9,17.3c-.1-8-1.7-48.5-19-53.9-.7-.3-6.6-2.9-13.3.9-9.4,5.3-15.3,20-17.5,43.9l-.6,20.2-43.7,18.2c0,0,0-.2,0-.3l13.6-43.5c.3-1.3,0-2.7-.6-3.5,0,0,0,0,0,0h.6c1.7,0,2.1-3.2,2.1-5.1v-67.1c0-1.9-.4-5.1-2.1-5.1l-163.4-.2H47.2s36.9-22,36.9-22h.1c1.9-1.8,4.9-2.8,8.1-2.8l374.1-.2v-1.4s-349.5.1-349.5.1c8.8-11.6,77.7-103.2,90.8-116.5.5-.6,1-1,1.4-1.5.4-.4.7-.8,1.1-1.2,6.3-6.4,20.5-11.2,40.1-13.4l95.7-5.7c6.1-.7,190-.5,191.8-.5,5.4,0,10.4,2.3,13.8,6.4l61.3,70.8c-.6.6-1.2,1.3-1.6,2l-8.2,3.7,6.9,10v1.3c0,5.1,4.2,9.3,9.3,9.3h21.8c5.1,0,9.3-4.2,9.3-9.3v-9.3c8.6.6,13.6,1.8,16.5,6.4l1,1.7c3.2,5.2,4.9,11.1,4.7,17.2l-1,41.6ZM524,67.3l22.5-6.8,58.1,72.2-51.6,19.4-29-84.8ZM551.7,152.7l-55,20.7-7.5-95.1,33.4-10.4,29,84.9ZM610.6,125.1c-.3.9-.5,2-.5,3v7l-4.9-7.4,5.4-2.6Z"/>
      <path class="st3" d="M574.9,161.5l1.8,8.5,28.3-12.2-2-7.8-28.1,11.5ZM577.4,168.5l-1.3-6.4,26.2-10.7,1.5,5.7-26.3,11.3Z"/>
      <path class="st3" d="M611.5,138.4c0,4.4,3.5,7.9,7.9,7.9h21.8c4.4,0,7.9-3.5,7.9-7.9v-10.3c0-4.4-3.5-7.9-7.9-7.9h-21.8c-4.4,0-7.9,3.5-7.9,7.9v10.3ZM612.2,128.1c0-4,3.2-7.2,7.2-7.2h21.8c4,0,7.2,3.2,7.2,7.2v10.3c0,4-3.2,7.2-7.2,7.2h-21.8c-4,0-7.2-3.2-7.2-7.2v-10.3Z"/>
      <path class="st3" d="M514.2,262.5c-11,0-19.5,34.2-19.5,77.8s6.9,70.6,16.2,76.7l-22.2.3h.2c0-.2-5-8.8-4.7-22.2h-.7c-.3,12.4,3.9,20.8,4.7,22.2h-8.7c-1.1-1.7-6.3-11.9-4.8-32h-.7c-1.4,19.1,3.3,29.4,4.7,32.1h-10.6c0,.1.2,0,.2,0,0,0-4.7-8.7-3.3-26.6h-.7c-1.3,16.7,2.5,25.2,3.3,26.7h-7.2c-.9-2-5.5-13.1-4-23h-.7c-1.5,9.6,2.7,20.4,3.9,23.1h-2.4s0,0,0,0c-2.4,0-4.6-1.4-5.7-3.5-15.5-30.4-10.1-77.7-10-78.2l-1.4-.2c0,.5-5.5,48.2,10.2,79,1.3,2.6,4,4.2,6.9,4.2,0,0,0,0,.1,0l56-.8v-.4c.4,0,.8.1,1.2.1,11,0,19.5-34.2,19.5-77.8s-8.6-77.8-19.5-77.8ZM514.2,416.8c-9.8,0-18.1-35-18.1-76.4s8.3-76.4,18.1-76.4,18.1,35,18.1,76.4-8.3,76.4-18.1,76.4Z"/>
      <rect class="st3" x="226" y="106.2" width="35.5" height=".7" transform="translate(-20.9 133) rotate(-29.3)"/>
      <rect class="st3" x="247.8" y="112.5" width="35.7" height=".7" transform="translate(-20.4 151.3) rotate(-30.7)"/>
    </g>
  </g>
  <g id="right-lights">
    <rect class="st3" x="406.1" y="239.4" width="30.3" height="18.5" rx="2.1" ry="2.1"/>
    <rect class="st3" x="366.3" y="239.4" width="30.3" height="18.5" rx="2.1" ry="2.1"/>
  </g>
  <g id="left-lights">
    <rect class="st3" x="60.2" y="239.2" width="30.3" height="18.5" rx="2.1" ry="2.1"/>
    <rect class="st3" x="99.9" y="239.2" width="30.3" height="18.5" rx="2.1" ry="2.1"/>
  </g>
  <g id="license">
    <g>
      <rect class="st0" x="157.2" y="296.4" width="201.1" height="70.8" rx="2.9" ry="2.9"/>
      <rect class="st3" x="229.3" y="238.3" width="56.8" height="187.1" transform="translate(589.5 74.1) rotate(90)"/>
      <ellipse class="st1" cx="171.2" cy="354.4" rx="2.4" ry="2.4"/>
      <ellipse class="st2" cx="171.2" cy="310.3" rx="2.4" ry="2.4"/>
      <ellipse class="st1" cx="344.2" cy="354.4" rx="2.4" ry="2.4"/>
      <ellipse class="st2" cx="344.2" cy="310.3" rx="2.4" ry="2.4"/>
    </g>
  </g>
</svg>
