<svg id="Layer_1" xmlns="http://www.w3.org/2000/svg" version="1.1" viewBox="0 0 512 485.5">
  <defs>
    <style>
      .st0 {
        stroke-width: 2.2px;
      }

      .st0, .st1 {
        stroke: #141414;
      }

      .st0, .st1, .st2, .st3, .st4, .st5, .st6, .st7, .st8, .st9 {
        stroke-linecap: round;
        stroke-linejoin: round;
      }

      .st0, .st1, .st2, .st3, .st4, .st7, .st8, .st9 {
        fill: none;
      }

      .st2 {
        stroke-width: 1.7px;
      }

      .st2, .st3, .st4, .st5, .st7, .st8, .st9 {
        stroke: #f3f3f4;
      }

      .st3 {
        stroke-width: .9px;
      }

      .st10 {
        fill: #141414;
      }

      .st11 {
        fill: #fff;
      }

      .st4 {
        stroke-width: 2px;
      }

      .st5, .st12 {
        fill: red;
      }

      .st6 {
        fill: #f3f3f4;
        stroke: #000;
        stroke-width: .5px;
      }

      .st7 {
        stroke-width: 2.2px;
      }

      .st8 {
        stroke-width: 2px;
      }

      .st-rim {
        fill: none;
        stroke: #f3f3f4;
        stroke-linecap: round;
        stroke-linejoin: round;
        stroke-width: 2.5px;
      }
    </style>
  </defs>
  <g id="Layer_11" data-name="Layer_1">
    <g>
      <g>
        <path class="st10" d="M42.6,262.9c0-.3.2-.6.4-.9.5-1.3.8-2.5.7-3.4-.8-16.2-.2-40.2,2-59.2.3-2.6.7-5.2,1.1-7.6.3-1.6.5-3.1.8-4.6,1.4-7,7.8-9.4,7.8-9.4v-9.7h11l38.8-.2c-.3.5-.4,1.1-.4,1.7v94.4c0,2.1,1.7,3.8,3.8,3.8h58.9c1.5,1.5,3,2.9,4.5,4.2H38v-.3s3-4.6,4.6-8.6v-.2Z"/>
        <rect class="st10" x="460.6" y="192.4" width="16.4" height="142.2" rx="8" ry="8"/>
        <path class="st10" d="M464.8,106.1v25.3c0,2.6-2.1,4.7-4.7,4.7h-22.1c-2.6,0-4.7-2.1-4.7-4.7v-25.3c0-2.6,2.1-4.7,4.7-4.7h22.1c2.6,0,4.7,2.1,4.7,4.7ZM461.7,128.9v-20.4c0-2.1-1.7-3.8-3.8-3.8h-17.8c-2.1,0-3.8,1.7-3.8,3.8v20.4c0,2.1,1.7,3.8,3.8,3.8h17.8c2.1,0,3.8-1.7,3.8-3.8Z"/>
        <path class="st10" d="M461.7,108.5v20.4c0,2.1-1.7,3.8-3.8,3.8h-17.8c-2.1,0-3.8-1.7-3.8-3.8v-20.4c0-2.1,1.7-3.8,3.8-3.8h17.8c2.1,0,3.8,1.7,3.8,3.8Z"/>
        <path class="st10" d="M457.4,162.3l-4.4,46.4-.2.2-1.8-2-4.6-1.4h0c-.5-.7-1-1.5-1.6-2.2-1.1-1.5-3-2.7-5.1-3.7v-.2c.1,0-.9-40.3-.9-40.3h.5l18.4,2.8.2.2-.4.3h-.1Z"/>
        <polygon class="st10" points="453 208.7 457.4 162.3 457.8 162 462.1 158.4 464.2 188.6 460.7 190 459.7 177.6 456.6 234.7 453 209.1 452.7 208.9 453 208.7"/>
        <path class="st10" d="M446.3,205.6c6.1,9.3,4.1,17.7,5,29.7,1.1,15.6.4,22.4.4,22.4l-3.1-34.2c-.5-6.4-3-5.9-3.7-5.3-3,2.7-3.6,6.2-3.6,10.2l.4,31.8v1.9h-18.4l4.8-56.7,4.8-7.9v-.4c2.3.6,4.6,1.5,6.6,2.5,2.1,1,3.9,2.2,5.1,3.7.6.8,1.2,1.5,1.6,2.3h.1Z"/>
        <path class="st10" d="M446.3,136.1v1l-2.1,6.5-11.8,2.6h-.1c-.9-2.2-1.7-4.4-2-6.1l7.4-1.9.3-2h8.3Z"/>
        <path class="st10" d="M442.3,260.2l4.5.3c5.3-.4,9.8,3.8,9.9,9.2v142.4c0,10.3-8.5,18.8-18.8,18.8h-32.9c-10.3,0-18.8-8.4-18.8-18.8l.2-86.2v-.6h10.6l34.3-10.8s4.5-13.3,5.6-20.2c.6-3.7.2-7.6-.5-11.3-.2-1.3-.8-3-1.3-4.7-1.1-3.3-2.4-6.5-2.4-6.5h-134.3c1.6-1.4,3.1-2.8,4.5-4.2h60.7c.9,0,1.7-.3,2.4-.9h1.4c0,.1,39.4.1,39.4.1l4.1-4.1v-33.6c2.6,0,6.1-6.4,6.1-6.4h1.7l-1.4,39.4h24.3v-1.9h.7Z"/>
        <path class="st10" d="M438.7,158.8s-.9-1.6-2.2-3.9h.2c0-.1,25.4,3.5,25.4,3.5l-4.4,3.6-.2-.2-18.4-2.8h-.5v-.3h.1Z"/>
        <path class="st10" d="M436.6,283c.7,3.7,1.1,7.6.5,11.3-1.1,6.9-5.6,20.2-5.6,20.2l-34.3,10.8h-98.7v-16.9c0-.3,0-.6-.1-.9h4.4l12.2-11.3s2.9-9.4,6.6-12.2c4.1-3.2,9.8-4.5,15-4.7,32-1.4,98.1-.8,98.1-.8l.5-.2c.6,1.7,1.1,3.4,1.3,4.7h.1ZM410.8,304.1c.6-5.1,0-15.5,0-15.5h-71.4l-11.3,27.7s44.5.8,66.7,0c4.5-.2,9.6,0,13.1-2.8,2.6-2,2.5-6.1,2.8-9.4h.1Z"/>
        <path class="st10" d="M434.8,278.4s-66.1-.5-98.1.8c-5.2.2-10.9,1.5-15,4.7-3.6,2.9-6.6,12.2-6.6,12.2l-12.2,11.3h-4.5c-.5-1.6-2.4-2.8-4.6-2.8h-123.8c-2.2,0-4.1,1.2-4.6,2.9h-3.3l-12.2-11.3c-1.3-4.5-2.9-9.4-6.6-12.2-4.1-3.2-9.8-4.5-15-4.7-29.7-1.3-92.7-.1-92.7-.1h-.6c1.1-3.6,2.7-7.4,2.7-7.4h134.3c16.8,14.6,39,23.4,63.3,23.4s46.6-8.9,63.4-23.4h134.3s1.3,3.2,2.4,6.5l-.5.2h0Z"/>
        <path class="st10" d="M433.1,153.5c.1.3.1.5.1.8,0,.6-.3,1.3-.8,1.7l-4.4,4c-.9.8-2.4.8-3.2-.2-.1-.1-.2-.2-.3-.4-.2-.4-.3-.8-.3-1.2,0-.6.2-1.2.8-1.7l4.4-4c.9-.8,2.4-.8,3.2.2.2.2.3.5.4.7h0Z"/>
        <path class="st10" d="M432.9,197.5l-4.8,7.9-4.8,56.7h-5.9l1.4-39.3.8-21,3.7-7c0,.2,4.2.8,8.9,2.1.3,0,.5.1.8.2v.4h-.1Z"/>
        <path class="st10" d="M430.3,140c.3,1.8,1,4,2,6.2,1,2.4,2.2,4.9,3.3,7l-2.5.2c-.1-.3-.2-.5-.4-.7-.8-.9-2.3-1-3.2-.2l-4.4,4c-.5.5-.8,1.1-.8,1.7s.1.8.3,1.2l-1.9.6c-2.3-4.8-4.4-9.8-4.4-9.8l12.1-10.3h-.1Z"/>
        <path class="st10" d="M426.2,132l-15.8-81c-2.8,1.4-5.7,3-5.7,3-1.2,1.2-1,1.6-.8,3.6l12.2,78.6c.2,2,1.6,3.3,3.3,2.8,0,0,7.2-5,6.9-7h-.1ZM399.3,165.8c-.2-.3-.4-.4-.4-.4h0l-15.4-107.3c-4.6-16.2-23.3-15.8-23.3-15.8-13-.9-256.6.7-256.6.7h-.7c8.9-7.1,21.9-13,26.8-13.1,131-2.4,247.6-2.9,264.7,1.1,8.1,1.9,11.9,4.2,15.2,9.3,2.6,3.9,5.4,15.5,6.4,20.9,5.2,28,9.9,52.2,14.4,78.9l-12.1,10.3-18.5,15.4h-.5ZM404.4,150s7.2-5,6.9-7l-11-86.7c-2.8,1.4-8.8,5.3-8.8,5.3-1.3,1.2-1,1.6-.8,3.6l10.5,82c.2,2,1.6,3.3,3.3,2.8h-.1Z"/>
        <path class="st10" d="M426.2,132c.3,2-6.9,7-6.9,7-1.6.5-3.1-.8-3.3-2.8l-12.2-78.6c-.2-2-.4-2.4.8-3.6,0,0,2.9-1.5,5.7-3l15.8,81h.1Z"/>
        <path class="st10" d="M425.7,166c-.9-1.6-2-3.7-3-5.9l1.9-.6c0,.1.2.2.3.4.8.9,2.3,1,3.2.2l4.4-4c.5-.5.8-1.1.8-1.7s0-.5-.1-.8l2.5-.2c.3.6.6,1.1.8,1.6,1.3,2.3,2.2,3.9,2.2,3.9v.3l1,40.3v.2c-2.1-1-4.5-1.8-6.7-2.5-.3,0-.5-.1-.8-.2v-.2c.3-6.4-1.9-16.6-3.2-22.2-.7-3-1.8-5.9-3.4-8.5h.1Z"/>
        <path class="st10" d="M421,163.7c.4.4.6,1,.6,1.5s-.2,1.2-.8,1.7l-6.3,5.7c-.9.8-2.4.8-3.2-.2-.4-.4-.6-1-.6-1.5s.3-1.2.8-1.7l6.3-5.7c.9-.9,2.4-.8,3.2.2Z"/>
        <path class="st10" d="M432.3,196.9c-4.7-1.3-8.9-1.9-8.9-2.1l-3.7,7-.8,21h-1.7l.3-39.2c-2-5.5-9.3-4.6-9.3-4.6-.5-3.3-7.2-11.2-8.9-13.2h.5l18.5-15.5s2.1,5,4.4,9.8c1,2.2,2.1,4.3,3,5.9,1.5,2.7,2.7,5.5,3.4,8.5,1.3,5.6,3.5,15.8,3.3,22.2v.2h0ZM421.6,165.2c0-.5-.2-1.1-.6-1.5-.8-.9-2.3-1-3.2-.2l-6.3,5.7c-.5.5-.8,1.1-.8,1.7s.2,1.1.6,1.5c.8.9,2.3,1,3.2.2l6.3-5.7c.5-.5.8-1.1.8-1.7Z"/>
        <path class="st10" d="M411.3,143c.3,2-6.9,7-6.9,7-1.6.5-3.1-.8-3.3-2.8l-10.5-82c-.2-2-.4-2.4.8-3.6,0,0,6.1-3.9,8.8-5.3l11,86.7h.1Z"/>
        <path class="st10" d="M410.8,288.7s.6,10.4,0,15.5c-.4,3.2-.2,7.4-2.8,9.4-3.6,2.7-8.7,2.7-13.1,2.8-22.2.8-66.7,0-66.7,0l11.3-27.7h71.4-.1ZM406.6,308.5v-13.1c0-1.6-1.3-2.8-2.8-2.8h-20.6c-1.5,0-2.8,1.3-2.8,2.8v13.1c0,1.6,1.3,2.8,2.8,2.8h20.6c1.6,0,2.8-1.3,2.8-2.8Z"/>
        <rect class="st12" x="380.3" y="292.5" width="26.3" height="18.8" rx="2.8" ry="2.8"/>
        <path class="st10" d="M398.9,165.4l.4.4c1.7,1.9,8.4,9.9,8.9,13.2,0,0,7.2-.9,9.3,4.6l-.3,39.1s-3.5,6.4-6.1,6.4v33.6l-4.1,4.1h-40.8c.8-.8,1.4-1.9,1.4-3v-94.4c0-1.6-1-3-2.4-3.5l33.7-.3v-.3h0Z"/>
        <path class="st10" d="M398.9,165.4v.3l-33.7.3c-.4-.2-.9-.3-1.4-.3h-43.4c-2-3.9-4.2-7.7-6.7-11.3h36.5c6.2,0,11.3-5.1,11.3-11.3v-67.1c0-6.2-5.1-11.3-11.3-11.3h-28.2v-8c0-1.3-1.1-2.3-2.4-2.3h-6.1c-1.3,0-2.4,1.1-2.4,2.3v8h-143.2v-8c0-1.3-1.1-2.3-2.4-2.3h-5.6c-1.3,0-2.3,1.1-2.3,2.3v8h-29.1c-6.2,0-11.3,5.1-11.3,11.3v67.1c0,6.2,5.1,11.3,11.3,11.3h28c-2.5,3.6-4.7,7.4-6.7,11.3h-41.5c-1.5,0-2.7.8-3.4,2.1l-38.8.2v-.2s24.9-108.1,28.4-115.9c1.3-2.9,4.3-6.1,8.1-9h.7c0,0,243.6-1.5,256.6-.6,0,0,18.6-.4,23.3,15.8l15.4,107.3h.3Z"/>
        <path class="st10" d="M366.7,192v6.6c0,1-.7,1.9-1.6,1.9h-3.3c-.9,0-1.6-.8-1.6-1.9v-6.6c0-1,.7-1.9,1.6-1.9h3.3c.9,0,1.6.9,1.6,1.9Z"/>
        <path class="st10" d="M361.5,248.3c-.9,0-1.7-.9-1.7-1.9v-6.6c0-1,.8-1.9,1.7-1.9h3.5c.9,0,1.7.9,1.7,1.9v6.6c0,1-.8,1.9-1.7,1.9h-3.5Z"/>
        <path class="st10" d="M361.5,76v67.1c0,6.2-5.1,11.3-11.3,11.3h-36.5c-1.2-1.8-2.5-3.5-3.9-5.2h35.7c4.6,0,8.4-3.8,8.4-8.5v-60.1c0-4.7-3.8-8.4-8.4-8.4h-23.5v-7.5h28.2c6.2,0,11.3,5.1,11.3,11.3h0Z"/>
        <path class="st10" d="M359.2,190.5c0-1.8-1.5-3.3-3.3-3.3h-28c-1.5-7.6-4-14.8-7.4-21.6h43.4c.5,0,.9,0,1.4.3,1.4.5,2.4,1.9,2.4,3.5v29.1h-.9v-6.6c0-1-.7-1.9-1.6-1.9h-3.3c-.9,0-1.6.9-1.6,1.9v6.6h-1v-8h-.1Z"/>
        <path class="st10" d="M359.2,246.4h.6c0,1,.8,1.9,1.7,1.9h3.5c.9,0,1.7-.9,1.7-1.9h.9v17.4c0,1.2-.5,2.2-1.4,2.9-.6.5-1.5.9-2.4.9h-60.7c8.7-8.7,15.7-19,20.2-30.5h.4c-.2.5-.3,1-.3,1.4v9.4c0,1.8,1.5,3.3,3.3,3.3h29.1c1.8,0,3.3-1.5,3.3-3.3v-1.4h0Z"/>
        <path class="st10" d="M359.2,246.4v1.4c0,1.8-1.5,3.3-3.3,3.3h-29.1c-1.8,0-3.3-1.5-3.3-3.3v-9.4c0-.5,0-.9.3-1.3.5-1.2,1.7-2,3-2h29.1c1.8,0,3.3,1.5,3.3,3.3v8Z"/>
        <path class="st10" d="M359.2,198.5v1.4c0,1.8-1.5,3.3-3.3,3.3h-26.3c0-5.4-.7-10.8-1.7-16h28c1.8,0,3.3,1.5,3.3,3.3v8Z"/>
        <path class="st10" d="M354,80.7v60.1c0,4.7-3.8,8.5-8.4,8.5h-35.7c-17.3-21.4-44.3-35.2-74.7-35.2s-57.4,13.8-74.6,35.2h-26.7c-4.6,0-8.5-3.8-8.5-8.5v-60.1c0-4.7,3.8-8.4,8.5-8.4h23.9v3.3c0,1.3,1.1,2.3,2.3,2.3h5.6c1.3,0,2.4-1.1,2.4-2.3v-3.3h143.2v3.3c0,1.3,1.1,2.3,2.4,2.3h6.1c1.3,0,2.4-1.1,2.4-2.3v-3.3h23.5c4.6,0,8.4,3.8,8.4,8.4h0ZM264.8,103.7v-8c0-1.8-1.5-3.3-3.3-3.3h-44.1c-1.8,0-3.3,1.5-3.3,3.3v8c0,1.8,1.5,3.3,3.3,3.3h44.1c1.8,0,3.3-1.5,3.3-3.3Z"/>
        <path class="st10" d="M329.6,203.2v1.4c0,11.4-2.2,22.3-6.2,32.4-4.6,11.5-11.5,21.8-20.2,30.5h-16c19.3-14.7,31.7-37.4,31.7-62.9s-3.8-27.4-10.5-39h12.1c3.4,6.8,5.9,14,7.4,21.6h-1.1c-1.8,0-3.3,1.5-3.3,3.3v9.4c0,1.8,1.5,3.3,3.3,3.3h2.8Z"/>
        <path class="st10" d="M329.6,203.2h-2.8c-1.8,0-3.3-1.5-3.3-3.3v-9.4c0-1.8,1.5-3.3,3.3-3.3h1.1c1,5.2,1.6,10.5,1.7,16h0Z"/>
        <path class="st10" d="M323.4,237c4-10.1,6.2-21,6.2-32.4s0-.9,0-1.4h26.3c1.8,0,3.3-1.5,3.3-3.3v-1.4h1c0,1,.7,1.9,1.6,1.9h3.3c.9,0,1.6-.8,1.6-1.9h.9v47.9h-.9v-6.6c0-1-.8-1.9-1.7-1.9h-3.5c-.9,0-1.7.9-1.7,1.9v6.6h-.6v-8c0-1.8-1.5-3.3-3.3-3.3h-29.1c-1.4,0-2.5.8-3,2h-.4,0Z"/>
        <path class="st10" d="M322.1,72.3v3.3c0,1.3-1.1,2.3-2.4,2.3h-6.1c-1.3,0-2.4-1.1-2.4-2.3v-18.8c0-1.3,1.1-2.3,2.4-2.3h6.1c1.3,0,2.4,1.1,2.4,2.3v15.5Z"/>
        <path class="st10" d="M320.4,165.7h-12.1c-2.3-4-4.9-7.8-7.9-11.3h13.4c2.5,3.6,4.7,7.4,6.7,11.3h-.1Z"/>
        <path class="st10" d="M313.8,154.4h-13.4c-1.5-1.8-3.1-3.5-4.7-5.2h14.2c1.4,1.7,2.6,3.4,3.9,5.2Z"/>
        <path class="st10" d="M309.9,149.2h-14.2c-15.2-15.3-36.7-24.8-60.4-24.8s-45.2,9.5-60.4,24.8h-14.2c17.2-21.4,44.3-35.2,74.6-35.2s57.4,13.8,74.7,35.2h-.1Z"/>
        <path class="st10" d="M308.3,165.7c6.7,11.5,10.5,24.8,10.5,39,0,25.5-12.4,48.2-31.7,62.9h-24.8c25.7-10.2,43-34.5,43.8-62.9s-4.7-27.9-12.8-39h15Z"/>
        <path class="st10" d="M308.3,165.7h-14.9c-3-4.1-6.4-7.9-10.3-11.3h17.3c3,3.5,5.6,7.3,7.9,11.3Z"/>
        <path class="st10" d="M303.1,267.5c-1.5,1.5-3,2.9-4.5,4.2h-17.6c2.1-1.3,4.1-2.7,6.1-4.2h16Z"/>
        <path class="st10" d="M300.4,154.4h-17.3c-2.1-1.9-4.3-3.6-6.6-5.2h19.3c1.6,1.6,3.2,3.4,4.7,5.2h-.1Z"/>
        <path class="st10" d="M281,271.8h17.6c-16.8,14.6-39,23.4-63.4,23.4s-46.6-8.9-63.3-23.4h17.6c13.1,8.3,28.9,13.1,45.7,13.1s32.6-4.8,45.8-13.1Z"/>
        <path class="st11" d="M298.5,325.3v16.9c0,2.1-2.1,3.8-4.7,3.8h-123.8c-2.6,0-4.7-1.7-4.7-3.8v-33.8c0-.3,0-.6.1-.9.5-1.6,2.4-2.9,4.6-2.9h123.8c2.2,0,4.1,1.2,4.6,2.9,0,.3.1.6.1.9v16.9ZM294.9,339.5v-28.5c0-1.6-1.4-3-3.1-3h-119.3c-1.7,0-3.1,1.3-3.1,3v28.5c0,1.6,1.4,3,3.1,3h119.3c1.7,0,3.1-1.3,3.1-3Z"/>
        <path class="st10" d="M295.7,149.2h-19.3c-11.6-8-25.8-12.7-41.2-12.7s-29.6,4.7-41.2,12.7h-19.3c15.2-15.3,36.7-24.8,60.4-24.8s45.2,9.5,60.4,24.8h.2Z"/>
        <path class="st10" d="M235.2,166.3c-22,0-39.9,17.1-39.9,38.3s17.9,38.3,39.9,38.3,39.9-17.1,39.9-38.3-17.9-38.3-39.9-38.3h0ZM177.1,165.7h116.2c8,11,12.8,24.5,12.8,39,0,28.4-18.1,52.7-43.8,62.9h-54.2c-25.7-10.2-43.8-34.5-43.8-62.9s4.7-27.9,12.8-39h0Z"/>
        <path class="st10" d="M293.4,165.7h-116.2c3-4.1,6.4-7.9,10.3-11.3h95.6c3.9,3.4,7.3,7.2,10.3,11.3Z"/>
        <path class="st11" d="M290,310.2c1,0,1.9.8,1.9,1.9s-.9,1.9-1.9,1.9-1.9-.8-1.9-1.9.8-1.9,1.9-1.9Z"/>
        <path class="st11" d="M289.7,336c1,0,1.9.8,1.9,1.9s-.8,1.9-1.9,1.9-1.9-.8-1.9-1.9.8-1.9,1.9-1.9Z"/>
        <path class="st10" d="M262.3,267.5h24.8c-2,1.5-4,2.9-6.1,4.2h-34.1c5.4-.9,10.5-2.3,15.4-4.2h0Z"/>
        <path class="st10" d="M283.1,154.4h-95.6c2.1-1.9,4.3-3.6,6.6-5.2h82.3c2.3,1.6,4.6,3.3,6.6,5.2h0Z"/>
        <path class="st10" d="M246.9,271.8h34.1c-13.1,8.3-28.9,13.1-45.8,13.1s-32.6-4.8-45.7-13.1h34.1c3.8.6,7.7.9,11.7.9s7.9-.3,11.7-.9h-.1Z"/>
        <path class="st10" d="M276.4,149.2h-82.3c11.6-8,25.8-12.7,41.2-12.7s29.6,4.7,41.2,12.7h-.1Z"/>
        <path class="st10" d="M264.8,95.7v8c0,1.8-1.5,3.3-3.3,3.3h-44.1c-1.8,0-3.3-1.5-3.3-3.3v-8c0-1.8,1.5-3.3,3.3-3.3h44.1c1.8,0,3.3,1.5,3.3,3.3ZM259.7,101.4v-2.3c0-1-.8-1.9-1.9-1.9h-36.6c-1,0-1.9.8-1.9,1.9v2.3c0,1,.9,1.9,1.9,1.9h36.6c1,0,1.9-.9,1.9-1.9Z"/>
        <path class="st10" d="M264.1,194.7c.3.7,0,1.5-.7,1.7l-14.1,5.1c-.7.3-1.6,0-1.9-.8l-.7-1.4-.5-1c-.3-.7,0-1.6.6-1.9l13.1-7.1c.7-.4,1.5-.1,1.9.6l2.3,4.8h0Z"/>
        <path class="st10" d="M235.2,166.3c22,0,39.9,17.1,39.9,38.3s-17.9,38.3-39.9,38.3-39.9-17.1-39.9-38.3,17.9-38.3,39.9-38.3h0ZM268.6,204.6c0-3.9-.7-7.6-2-11-4-10.5-13.7-18.5-25.4-20.5-1.9-.3-3.9-.5-5.9-.5h-.2c-10.3,0-19.5,4.6-25.5,11.6-4.8,5.5-7.6,12.6-7.6,20.4s.6,7,1.8,10.3c3.9,10.9,13.7,19.2,25.7,21.2,1.9.3,3.9.5,5.9.5h.3c12.2,0,22.9-6.5,28.6-16.1,2.8-4.7,4.4-10.1,4.4-15.9h-.1Z"/>
        <path class="st10" d="M208.2,267.5h54.2c-4.9,1.9-10,3.4-15.4,4.2h-23.3c-5.4-.9-10.5-2.3-15.4-4.2h-.1Z"/>
        <path class="st10" d="M261.4,217.4c.7.4.9,1.2.4,1.8l-3.2,4.4c-.4.6-1.3.7-1.9.3l-11.6-9.2c-.6-.5-.7-1.4-.3-2l.5-.8,1-1.4c.5-.6,1.4-.8,2.1-.5l13,7.3h0Z"/>
        <path class="st10" d="M259.7,99v2.3c0,1-.8,1.9-1.9,1.9h-36.6c-1,0-1.9-.9-1.9-1.9v-2.3c0-1,.9-1.9,1.9-1.9h36.6c1,0,1.9.8,1.9,1.9Z"/>
        <path d="M250.7,204.3c.9,0,1.6.7,1.6,1.6s-.7,1.6-1.6,1.6-1.6-.7-1.6-1.6.7-1.6,1.6-1.6Z"/>
        <path d="M223.6,271.8h23.3c-3.8.6-7.7.9-11.7.9s-7.9-.3-11.7-.9h0Z"/>
        <path class="st10" d="M261.8,219.2c.5-.6.3-1.5-.4-1.8l-13-7.3c-.7-.4-1.6-.2-2.1.5l-1,1.4-1.5-1.1c1.3-1.7,2.1-3.9,2.1-6.2s-.4-3.1-1.1-4.5l1.7-.8.7,1.4c.3.7,1.2,1,1.9.8l14.1-5.1c.7-.3,1-1,.7-1.7l2.5-1c1.3,3.4,2,7.1,2,11,0,5.8-1.6,11.2-4.4,15.9l-2.3-1.3v-.2ZM252.3,205.9c0-.9-.7-1.6-1.6-1.6s-1.6.7-1.6,1.6.7,1.6,1.6,1.6,1.6-.7,1.6-1.6Z"/>
        <path class="st10" d="M245,200.1c.7,1.4,1.1,2.9,1.1,4.5,0,2.3-.8,4.5-2.1,6.2-2,2.5-5.1,4.2-8.7,4.2s-.7,0-1.1,0c-3.8-.4-7-2.7-8.6-5.8-.7-1.4-1.1-2.9-1.1-4.5,0-2.3.8-4.5,2.1-6.2,2-2.5,5.1-4.2,8.6-4.2s.7,0,1.1,0c3.8.4,7,2.6,8.6,5.8h0Z"/>
        <path d="M244.1,190.8c.9,0,1.6.7,1.6,1.6s-.7,1.6-1.6,1.6-1.6-.7-1.6-1.6.7-1.6,1.6-1.6Z"/>
        <path class="st10" d="M241.8,216.5c.9,0,1.6.7,1.6,1.6s-.7,1.6-1.6,1.6-1.6-.7-1.6-1.6.7-1.6,1.6-1.6Z"/>
        <path class="st10" d="M240.7,175.7c.8,0,1.3.7,1.2,1.5l-2.5,14.2c-.1.8-.9,1.3-1.6,1.3h-1.2l-1.5-.2c-.8,0-1.4-.8-1.4-1.5v-14.4c.1-.8.8-1.4,1.5-1.3l5.6.5h-.1Z"/>
        <path class="st10" d="M241.1,173.1l-.4,2.6-5.6-.5v-2.6h.1c2,0,4,.2,5.9.5Z"/>
        <path class="st10" d="M246.8,196.4c-.7.4-1,1.2-.6,1.9l.5,1-1.7.8c-1.6-3.2-4.8-5.4-8.6-5.8v-1.8h1.4c.8,0,1.5-.5,1.6-1.3l2.5-14.2c.1-.8-.4-1.4-1.2-1.5l.4-2.6c11.8,2,21.4,10,25.4,20.5l-2.5,1-2.3-4.8c-.3-.7-1.2-1-1.9-.6l-13.1,7.1v.3ZM245.8,192.4c0-.9-.7-1.6-1.6-1.6s-1.6.7-1.6,1.6.7,1.6,1.6,1.6,1.6-.7,1.6-1.6Z"/>
        <path class="st10" d="M235.5,216.9c.8,0,1.4.8,1.4,1.5v14.4c-.1.7-.7,1.3-1.4,1.3h-.1l-5.6-.5c-.8,0-1.3-.7-1.2-1.5l2.5-14.2c.1-.8.9-1.3,1.6-1.3h1.2c0,.1,1.6.2,1.6.2h0Z"/>
        <path d="M235.5,236.6h-.3c-2,0-4-.2-5.9-.5l.4-2.6,5.6.5h.1v2.6h0Z"/>
        <path class="st10" d="M244.8,212.7c-.5.6-.3,1.5.3,2l11.6,9.2c.6.5,1.5.4,1.9-.3l3.2-4.4,2.3,1.3c-5.7,9.5-16.4,16-28.6,16.1v-2.6c.7,0,1.3-.6,1.3-1.3v-14.4c.1-.8-.5-1.5-1.3-1.5h-1.6c0-.1.1-1.9.1-1.9h1.1c3.5,0,6.7-1.6,8.7-4.2l1.5,1.1-.5.8h0ZM243.4,218.1c0-.9-.7-1.6-1.6-1.6s-1.6.7-1.6,1.6.7,1.6,1.6,1.6,1.6-.7,1.6-1.6Z"/>
        <path class="st10" d="M228.7,189.5c.9,0,1.6.7,1.6,1.6s-.7,1.6-1.6,1.6-1.6-.7-1.6-1.6.7-1.6,1.6-1.6Z"/>
        <path class="st10" d="M235.2,194.3c-3.5,0-6.7,1.6-8.6,4.2l-1.5-1.1.6-.8c.5-.6.3-1.5-.3-2l-11.6-9.2c-.6-.5-1.5-.4-1.9.3v.2c-.1,0-2.3-1.6-2.3-1.6,6.1-7.1,15.3-11.6,25.5-11.6v2.6c-.7,0-1.4.5-1.4,1.3v14.4c-.1.8.5,1.5,1.3,1.5h1.5c0,.1-.1,1.9-.1,1.9h-1.2ZM230.3,191.2c0-.9-.7-1.6-1.6-1.6s-1.6.7-1.6,1.6.7,1.6,1.6,1.6,1.6-.7,1.6-1.6Z"/>
        <path class="st10" d="M226.4,215.2c.9,0,1.6.7,1.6,1.6s-.7,1.6-1.6,1.6-1.6-.7-1.6-1.6.7-1.6,1.6-1.6Z"/>
        <path class="st10" d="M225.4,194.6c.6.5.7,1.4.3,2l-.6.8-1,1.4c-.5.6-1.4.8-2.1.5l-13-7.3c-.7-.4-.9-1.2-.4-1.8l3-4.2v-.2c.6-.6,1.5-.7,2.1-.3l11.6,9.2h0Z"/>
        <path class="st10" d="M224.3,211c.3.7,0,1.6-.6,1.9l-13.1,7.1c-.7.4-1.5.1-1.9-.6l-2.3-4.8s0-.2-.1-.3c-.1-.6.2-1.2.8-1.5l14.1-5.1c.7-.3,1.6.1,1.9.8l.7,1.4.5,1h0Z"/>
        <path class="st10" d="M223.6,271.8h-34.1c-2.1-1.3-4.1-2.7-6.1-4.2h24.8c4.9,1.9,10.1,3.4,15.4,4.2h0Z"/>
        <path d="M219.8,201.7c.9,0,1.7.7,1.7,1.6s-.7,1.6-1.7,1.6-1.6-.7-1.6-1.6.7-1.6,1.6-1.6Z"/>
        <path class="st10" d="M224.5,204.6c0,1.6.4,3.1,1.1,4.5l-1.7.8-.7-1.4c-.3-.7-1.2-1-1.9-.8l-14.1,5.1c-.6.2-1,.8-.8,1.5l-2.6.6c-1.1-3.2-1.8-6.7-1.8-10.3,0-7.7,2.9-14.8,7.6-20.4l2.2,1.6-3,4.2c-.5.6-.3,1.4.4,1.8l13,7.3c.7.4,1.6.2,2.1-.5l1-1.4,1.5,1.1c-1.3,1.7-2.1,3.9-2.1,6.2h-.2ZM221.5,203.3c0-.9-.7-1.6-1.7-1.6s-1.6.7-1.6,1.6.7,1.6,1.6,1.6,1.7-.7,1.7-1.6Z"/>
        <path class="st10" d="M208.2,267.5h-24.8c-19.3-14.7-31.7-37.4-31.7-62.9s3.8-27.4,10.5-39h14.9c-8,11-12.8,24.5-12.8,39,0,28.4,18.1,52.7,43.8,62.9h.1Z"/>
        <path class="st10" d="M225.5,209.1c1.6,3.2,4.8,5.4,8.6,5.8v1.8c-.1,0-1.4-.1-1.4-.1-.8,0-1.5.5-1.6,1.3l-2.5,14.2c-.1.8.4,1.4,1.2,1.5l-.4,2.6c-12.1-2-21.9-10.3-25.7-21.2l2.6-.6c0,.1,0,.2.1.3l2.3,4.8c.3.7,1.2,1,1.9.6l13.1-7.1c.7-.4,1-1.2.6-1.9l-.5-1,1.7-.8v-.2ZM228,216.8c0-.9-.7-1.6-1.6-1.6s-1.6.7-1.6,1.6.7,1.6,1.6,1.6,1.6-.7,1.6-1.6Z"/>
        <path class="st10" d="M174.8,149.2h19.3c-2.3,1.6-4.5,3.3-6.6,5.2h-17.3c1.5-1.8,3-3.5,4.7-5.2h0Z"/>
        <path class="st10" d="M189.5,271.8h-17.6c-1.6-1.4-3.1-2.8-4.5-4.2h16c2,1.5,4,2.9,6.1,4.2Z"/>
        <path class="st10" d="M170.1,154.4h17.3c-3.9,3.4-7.3,7.2-10.3,11.3h-14.9c2.3-4,4.9-7.8,7.9-11.3Z"/>
        <path class="st10" d="M183.4,267.5h-16c-16.4-16.3-26.5-38.5-26.5-62.9s3.3-27.2,9.2-39h12.1c-6.7,11.5-10.5,24.8-10.5,39,0,25.5,12.4,48.2,31.7,62.9Z"/>
        <path class="st10" d="M160.6,149.2h14.2c-1.6,1.6-3.2,3.4-4.7,5.2h-13.4c1.2-1.8,2.5-3.5,3.9-5.2Z"/>
        <path class="st11" d="M173.7,310.2c1,0,1.9.8,1.9,1.9s-.8,1.9-1.9,1.9-1.9-.8-1.9-1.9.8-1.9,1.9-1.9Z"/>
        <path class="st11" d="M173.7,336.2c1,0,1.9.8,1.9,1.9s-.8,1.9-1.9,1.9-1.9-.8-1.9-1.9.8-1.9,1.9-1.9Z"/>
        <path class="st11" d="M289.7,339.8c1,0,1.9-.8,1.9-1.9s-.8-1.9-1.9-1.9-1.9.8-1.9,1.9.8,1.9,1.9,1.9ZM171.8,338.1c0,1,.8,1.9,1.9,1.9s1.9-.8,1.9-1.9-.8-1.9-1.9-1.9-1.9.8-1.9,1.9ZM290,310.2c-1,0-1.9.8-1.9,1.9s.8,1.9,1.9,1.9,1.9-.8,1.9-1.9-.9-1.9-1.9-1.9ZM173.7,310.2c-1,0-1.9.8-1.9,1.9s.8,1.9,1.9,1.9,1.9-.8,1.9-1.9-.8-1.9-1.9-1.9ZM291.7,342.4h-119.3c-1.7,0-3.1-1.3-3.1-3v-28.5c0-1.6,1.4-3,3.1-3h119.3c1.7,0,3.1,1.3,3.1,3v28.5c0,1.6-1.4,3-3.1,3Z"/>
        <path class="st10" d="M156.7,154.4h13.4c-3,3.5-5.6,7.3-7.9,11.3h-12.1c1.9-3.9,4.2-7.7,6.7-11.3h0Z"/>
        <polygon class="st10" points="168.1 72.1 168.1 64.8 168.3 64.8 311.2 64.8 311.3 64.8 311.3 72.3 311.1 72.3 168.6 72.3 168.1 72.3 168.1 72.1"/>
        <path class="st10" d="M168.1,72.3v3.3c0,1.3-1.1,2.3-2.4,2.3h-5.6c-1.3,0-2.3-1.1-2.3-2.3v-18.8c0-1.3,1.1-2.3,2.3-2.3h5.6c1.3,0,2.4,1.1,2.4,2.3v15.5Z"/>
        <path class="st10" d="M105.2,167.7c.6-1.2,1.9-2.1,3.4-2.1h41.5c-5.9,11.8-9.2,25-9.2,39,0,24.4,10.1,46.6,26.5,62.9h-58.9c-2.1,0-3.8-1.7-3.8-3.8v-94.4c0-.6,0-1.2.4-1.7h0ZM132.9,252.5v-.5c0-1.5-1.3-2.8-2.8-2.8h-15.5c-1.6,0-2.8,1.3-2.8,2.8v.5c0,1.5,1.3,2.8,2.8,2.8h15.5c1.5,0,2.8-1.3,2.8-2.8ZM129.2,224.3v-33.3c0-3.1-2.5-5.6-5.6-5.6h-.5c-3.1,0-5.6,2.5-5.6,5.6v33.3c0,3.1,2.5,5.6,5.6,5.6h.5c3.1,0,5.6-2.5,5.6-5.6Z"/>
        <path class="st10" d="M165.1,307.4h.2c0,.4-.1.6-.1.9v16.9h-91.9l-34.3-10.8s-4.5-13.3-5.6-20.2c-.6-3.7-.2-7.6.5-11.3.2-1.1.6-2.5,1-3.9h.6s63-1.2,92.7.1c5.2.2,10.9,1.5,15,4.7,3.6,2.9,5.3,7.8,6.6,12.2l12.2,11.3h3.1ZM136.7,316.3l-11.3-27.7H54.1s-.6,10.4,0,15.5c.4,3.2.2,7.4,2.8,9.4,3.5,2.7,8.7,2.7,13.1,2.8,22.2.8,66.6,0,66.6,0h0Z"/>
        <path class="st10" d="M133.9,149.2h26.7c-1.4,1.7-2.6,3.4-3.9,5.2h-28c-6.2,0-11.3-5.1-11.3-11.3v-67.1c0-6.2,5.1-11.3,11.3-11.3h29.1v7.5h-23.9c-4.6,0-8.5,3.8-8.5,8.4v60.1c0,4.7,3.8,8.5,8.5,8.5h0Z"/>
        <path class="st10" d="M125.4,288.7l11.3,27.7s-44.4.8-66.6,0c-4.5-.2-9.6,0-13.1-2.8-2.6-2-2.5-6.1-2.8-9.4-.6-5.1,0-15.5,0-15.5h71.4-.2ZM84.6,308.5v-13.1c0-1.6-1.3-2.8-2.8-2.8h-20.6c-1.5,0-2.8,1.3-2.8,5.8,0,0,1.3,13,2.8,13h20.6c1.6,0,2.8-1.3,2.8-2.8h0Z"/>
        <path class="st10" d="M132.9,252v.5c0,1.5-1.3,2.8-2.8,2.8h-15.5c-1.6,0-2.8-1.3-2.8-2.8v-.5c0-1.5,1.3-2.8,2.8-2.8h15.5c1.5,0,2.8,1.3,2.8,2.8Z"/>
        <path class="st10" d="M129.2,191v33.3c0,3.1-2.5,5.6-5.6,5.6h-.5c-3.1,0-5.6-2.5-5.6-5.6v-33.3c0-3.1,2.5-5.6,5.6-5.6h.5c3.1,0,5.6,2.5,5.6,5.6Z"/>
        <path class="st10" d="M105.7,325.3l.5,86.8c0,10.3-8.4,18.8-18.8,18.8h-49.8c-10.3,0-18.8-8.4-18.8-18.8v-110.3c.5-7.5.9-16,2.8-22.5,1.9-6.6,3.8-11.7,8.5-14.1,4.7-1.3,11.4-2.2,12.5-2.3-1.7,4-4.6,8.6-4.6,8.6v.3h-.4s-1.6,3.8-2.7,7.4c-.4,1.4-.8,2.8-1,3.9-.7,3.7-1.1,7.6-.5,11.3,1.1,6.9,5.6,20.2,5.6,20.2l34.3,10.8h32.4Z"/>
        <path class="st12" d="M84.6,295.3v13.1c0,1.6-1.3,2.8-2.8,2.8h-20.6c-1.5,0-2.8-13-2.8-13,0-4.6,1.3-5.8,2.8-5.8h20.6c1.6,0,2.8,1.3,2.8,2.8h0Z"/>
        <path class="st10" d="M46.2,191.5h.6c-.4,2.5-.7,5.1-1.1,7.7h0l-12.1,5.2h-.4v-.4l4.9-8.6s8.1-3.9,8.1-3.9Z"/>
        <path class="st10" d="M45.7,199.3h0c-2.3,19-2.8,43-2,59.2,0,.9-.3,2.1-.7,3.4h0l-10.3-2c-2.8-.5-4.8-3.2-4.5-6l5-49.5h.4l12.1-5.1h0Z"/>
      </g>
      <g>
        <path class="st8" d="M66.4,167.7s24.9-108.1,28.4-115.9c1.3-2.9,4.3-6.1,8.1-9,8.9-6.9,21.9-12.9,26.8-12.9,131-2.4,247.6-2.9,264.7,1.1,8.1,1.9,11.9,4.2,15.2,9.3,2.6,3.9,5.4,15.5,6.4,20.9,5.2,28,9.9,52.2,14.4,78.9.3,1.8,1,4,2,6.2,1,2.4,2.2,4.9,3.3,7,.3.6.6,1.1.8,1.6,1.3,2.3,2.2,3.9,2.2,3.9v.3l1,40.3"/>
        <line class="st8" x1="168.3" y1="64.8" x2="311.2" y2="64.8"/>
        <path class="st8" d="M156.7,154.4h-28c-6.2,0-11.3-5.1-11.3-11.3v-67.1c0-6.2,5.1-11.3,11.3-11.3h28.6"/>
        <path class="st8" d="M322.1,64.8h28.1c6.2,0,11.3,5.1,11.3,11.3v67.1c0,6.2-5.1,11.3-11.3,11.3h-36.5"/>
        <path class="st9" d="M390.6,65.2c-.2-2-.4-2.4.8-3.6,0,0,6.1-3.9,8.8-5.3l11,86.7c.3,2-6.9,7-6.9,7-1.6.5-3.1-.8-3.3-2.8l-10.5-82h.1Z"/>
        <path class="st9" d="M403.8,57.6c-.2-2-.4-2.4.8-3.6,0,0,2.9-1.5,5.7-3l15.8,81c.3,2-6.9,7-6.9,7-1.6.5-3.1-.8-3.3-2.8l-12.2-78.6h.1Z"/>
        <path class="st9" d="M219.3,99c0-1,.9-1.9,1.9-1.9h36.6c1,0,1.9.8,1.9,1.9v2.3c0,1-.8,1.9-1.9,1.9h-36.6c-1,0-1.9-.9-1.9-1.9v-2.3h0Z"/>
        <path class="st8" d="M320.4,165.7h43.4c.5,0,.9,0,1.4.3,1.4.5,2.4,1.9,2.4,3.5v94.4c0,1.2-.5,2.2-1.4,2.9-.6.5-1.5.9-2.4.9h-60.7"/>
        <path class="st8" d="M167.4,267.5h-58.9c-2.1,0-3.8-1.7-3.8-3.8v-94.4c0-.6,0-1.2.4-1.7.6-1.2,1.9-2.1,3.4-2.1h41.5"/>
        <path class="st8" d="M418.9,222.8l.8-21,3.7-7c0,.2,4.2.8,8.9,2.1.3,0,.5.1.8.2,2.2.6,4.5,1.5,6.5,2.5,2.1,1,3.9,2.2,5.1,3.7.6.8,1.2,1.5,1.6,2.3,6.1,9.3,4.1,17.7,5,29.7,1.1,15.6.4,22.4.4,22.4l-3.1-34.2c-.5-6.4-3-5.9-3.7-5.3-3,2.7-3.6,6.2-3.6,10.2l.4,31.8v1.9h-24.3l1.4-39.3h.1Z"/>
        <path class="st8" d="M298.6,271.8h134.3s1.3,3.2,2.4,6.5c.6,1.7,1.1,3.4,1.3,4.7.7,3.7,1.1,7.6.5,11.3-1.1,6.9-5.6,20.2-5.6,20.2l-34.3,10.8h-98.4"/>
        <path class="st8" d="M164.8,325.3h-91.5l-34.3-10.8s-4.5-13.3-5.6-20.2c-.6-3.7-.2-7.6.5-11.3.2-1.1.6-2.5,1-3.9,1.1-3.6,2.7-7.4,2.7-7.4h134.3"/>
        <path class="st9" d="M58.3,298.3c0-4.6,1.3-5.8,2.8-5.8h20.6c1.6,0,2.8,1.3,2.8,2.8v13.1c0,1.6-1.3,2.8-2.8,2.8h-20.6c-1.5,0-2.8-13-2.8-13h0Z"/>
        <rect class="st9" x="380.3" y="292.5" width="26.3" height="18.8" rx="2.8" ry="2.8"/>
        <path class="st0" d="M165.2,325.3v-16.9c0-.3,0-.6.1-.9.5-1.6,2.4-2.9,4.6-2.9h123.8c2.2,0,4.1,1.2,4.6,2.9,0,.3.1.6.1.9v33.8c0,2.1-2.1,3.8-4.7,3.8h-123.8c-2.6,0-4.7-1.7-4.7-3.8v-16.9h0Z"/>
        <path class="st8" d="M438,136.1c-2.6,0-4.7-2.1-4.7-4.7v-25.3c0-2.6,2.1-4.7,4.7-4.7h22.1c2.6,0,4.7,2.1,4.7,4.7v25.3c0,2.6-2.1,4.7-4.7,4.7h-22.1Z"/>
        <path class="st9" d="M436.4,108.5c0-2.1,1.7-3.8,3.8-3.8h17.8c2.1,0,3.8,1.7,3.8,3.8v20.4c0,2.1-1.7,3.8-3.8,3.8h-17.8c-2.1,0-3.8-1.7-3.8-3.8,0,0,0-20.4,0-20.4Z"/>
        <rect class="st8" x="460.6" y="192.4" width="16.4" height="142.2" rx="8" ry="8"/>
        <line class="st9" x1="168.6" y1="72.3" x2="311.1" y2="72.3"/>
        <path class="st9" d="M160.6,149.2h-26.7c-4.6,0-8.5-3.8-8.5-8.5v-60.1c0-4.7,3.8-8.4,8.5-8.4h23.4"/>
        <path class="st9" d="M322.6,72.3h22.9c4.6,0,8.4,3.8,8.4,8.4v60.1c0,4.7-3.8,8.5-8.4,8.5h-35.7"/>
        <path class="st8" d="M168.1,72.1v3.5c0,1.3-1.1,2.3-2.4,2.3h-5.6c-1.3,0-2.3-1.1-2.3-2.3v-18.8c0-1.3,1.1-2.3,2.3-2.3h5.6c1.3,0,2.4,1.1,2.4,2.3v15.3"/>
        <path class="st8" d="M311.3,64.8v-8c0-1.3,1.1-2.3,2.4-2.3h6.1c1.3,0,2.4,1.1,2.4,2.3v18.8c0,1.3-1.1,2.3-2.4,2.3h-6.1c-1.3,0-2.4-1.1-2.4-2.3v-10.8Z"/>
        <path class="st9" d="M214.1,95.7c0-1.8,1.5-3.3,3.3-3.3h44.1c1.8,0,3.3,1.5,3.3,3.3v8c0,1.8-1.5,3.3-3.3,3.3h-44.1c-1.8,0-3.3-1.5-3.3-3.3v-8h0Z"/>
        <path class="st9" d="M117.4,191c0-3.1,2.5-5.6,5.6-5.6h.5c3.1,0,5.6,2.5,5.6,5.6v33.3c0,3.1-2.5,5.6-5.6,5.6h-.5c-3.1,0-5.6-2.5-5.6-5.6,0,0,0-33.3,0-33.3Z"/>
        <path class="st8" d="M359.2,246.4v1.4c0,1.8-1.5,3.3-3.3,3.3h-29.1c-1.8,0-3.3-1.5-3.3-3.3v-9.4c0-.5,0-.9.3-1.3.5-1.2,1.7-2,3-2h29.1c1.8,0,3.3,1.5,3.3,3.3v8Z"/>
        <path class="st8" d="M38,271.5s3-4.6,4.6-8.6c0-.3.2-.6.4-.9.5-1.3.8-2.5.7-3.4-.8-16.2-.2-40.2,2-59.2.3-2.6.7-5.2,1.1-7.6.3-1.6.5-3.1.8-4.6,1.4-7,7.8-9.4,7.8-9.4v-9.7h11l38.8-.2h.3"/>
        <path class="st8" d="M35.6,279.1s63-1.2,92.7.1c5.2.2,10.9,1.5,15,4.7,3.6,2.9,5.3,7.8,6.6,12.2"/>
        <path class="st8" d="M434.8,278.4s-66.1-.5-98.1.8c-5.2.2-10.9,1.5-15,4.7-3.6,2.9-6.6,12.2-6.6,12.2"/>
        <polyline class="st8" points="298.7 307.4 302.8 307.4 315 296.2"/>
        <polyline class="st8" points="149.8 296.2 162 307.4 165.1 307.4"/>
        <path class="st1" d="M169.3,311c0-1.6,1.4-3,3.1-3h119.3c1.7,0,3.1,1.3,3.1,3v28.5c0,1.6-1.4,3-3.1,3h-119.3c-1.7,0-3.1-1.3-3.1-3v-28.5Z"/>
        <path class="st1" d="M171.8,312.1c0-1,.8-1.9,1.9-1.9s1.9.8,1.9,1.9-.8,1.9-1.9,1.9-1.9-.8-1.9-1.9Z"/>
        <path class="st1" d="M288.1,312.1c0-1,.8-1.9,1.9-1.9s1.9.8,1.9,1.9-.9,1.9-1.9,1.9-1.9-.8-1.9-1.9Z"/>
        <path class="st1" d="M171.8,338.1c0-1,.8-1.9,1.9-1.9s1.9.8,1.9,1.9-.8,1.9-1.9,1.9-1.9-.8-1.9-1.9Z"/>
        <path class="st1" d="M287.8,337.9c0-1,.8-1.9,1.9-1.9s1.9.8,1.9,1.9-.8,1.9-1.9,1.9-1.9-.8-1.9-1.9Z"/>
        <path class="st8" d="M42.8,262.8h-.2c-1.1.1-7.8,1-12.5,2.3-4.7,2.3-6.6,7.5-8.5,14.1s-2.4,15-2.8,22.5v110.3c0,10.3,8.5,18.8,18.8,18.8h49.8c10.3,0,18.8-8.4,18.8-18.8l-.5-86.8"/>
        <path class="st9" d="M195.4,204.6c0-21.2,17.9-38.3,39.9-38.3s39.9,17.1,39.9,38.3-17.9,38.3-39.9,38.3-39.9-17.1-39.9-38.3Z"/>
        <path class="st9" d="M203.7,214.9c-1.1-3.2-1.8-6.7-1.8-10.3,0-7.7,2.9-14.8,7.6-20.4,6.1-7.1,15.3-11.6,25.5-11.6h.2c2,0,4,.2,5.9.5,11.8,2,21.4,10,25.4,20.5,1.3,3.4,2,7.1,2,11,0,5.8-1.6,11.2-4.4,15.9-5.7,9.5-16.4,16-28.6,16.1h-.3c-2,0-4-.2-5.9-.5-12.1-2-21.9-10.3-25.7-21.2h0Z"/>
        <path class="st9" d="M225.5,209.1c-.7-1.4-1.1-2.9-1.1-4.5,0-2.3.8-4.5,2.1-6.2,2-2.5,5.1-4.2,8.6-4.2s.7,0,1.1,0c3.8.4,7,2.6,8.6,5.8.7,1.4,1.1,2.9,1.1,4.5,0,2.3-.8,4.5-2.1,6.2-2,2.5-5.1,4.2-8.7,4.2s-.7,0-1.1,0c-3.8-.4-7-2.7-8.6-5.8h0Z"/>
        <path class="st9" d="M236.5,192.5h-1.5c-.8-.2-1.4-.9-1.4-1.7v-14.4c.1-.8.8-1.4,1.5-1.3l5.6.5c.8,0,1.3.7,1.2,1.5l-2.5,14.2c-.1.8-.9,1.3-1.6,1.3h-1.3Z"/>
        <path class="st9" d="M246.7,199.3l-.5-1c-.3-.7,0-1.6.6-1.9l13.1-7.1c.7-.4,1.5-.1,1.9.6l2.3,4.8c.3.7,0,1.5-.7,1.7l-14.1,5.1c-.7.3-1.6,0-1.9-.8l-.7-1.4h0Z"/>
        <path class="st9" d="M245.4,211.9l1-1.4c.5-.6,1.4-.8,2.1-.5l13,7.3c.7.4.9,1.2.4,1.8l-3.2,4.4c-.4.6-1.3.7-1.9.3l-11.6-9.2c-.6-.5-.7-1.4-.3-2l.5-.8h0Z"/>
        <path class="st9" d="M234,216.7h1.6c.8.2,1.4.9,1.4,1.7v14.4c-.1.7-.7,1.3-1.4,1.3h-.1l-5.6-.5c-.8,0-1.3-.7-1.2-1.5l2.5-14.2c.1-.8.9-1.3,1.6-1.3h1.2Z"/>
        <path class="st9" d="M223.8,209.9l.5,1c.3.7,0,1.6-.6,1.9l-13.1,7.1c-.7.4-1.5.1-1.9-.6l-2.3-4.8s0-.2-.1-.3c-.1-.6.2-1.2.8-1.5l14.1-5.1c.7-.3,1.6.1,1.9.8l.7,1.4h0Z"/>
        <path class="st9" d="M225.1,197.3l-1,1.4c-.5.6-1.4.8-2.1.5l-13-7.3c-.7-.4-.9-1.2-.4-1.8l3-4.2v-.2c.6-.6,1.5-.7,2.1-.3l11.6,9.2c.6.5.7,1.4.3,2l-.6.8h0Z"/>
        <path class="st9" d="M242.5,192.4c0-.9.7-1.6,1.6-1.6s1.6.7,1.6,1.6-.7,1.6-1.6,1.6-1.6-.7-1.6-1.6Z"/>
        <path class="st9" d="M249,205.9c0-.9.7-1.6,1.6-1.6s1.6.7,1.6,1.6-.7,1.6-1.6,1.6-1.6-.7-1.6-1.6Z"/>
        <path class="st9" d="M240.2,218.1c0-.9.7-1.6,1.6-1.6s1.6.7,1.6,1.6-.7,1.6-1.6,1.6-1.6-.7-1.6-1.6Z"/>
        <path class="st9" d="M224.7,216.8c0-.9.7-1.6,1.6-1.6s1.6.7,1.6,1.6-.7,1.6-1.6,1.6-1.6-.7-1.6-1.6Z"/>
        <path class="st9" d="M218.2,203.3c0-.9.7-1.6,1.6-1.6s1.7.7,1.7,1.6-.7,1.6-1.7,1.6-1.6-.7-1.6-1.6Z"/>
        <path class="st9" d="M227.1,191.2c0-.9.7-1.6,1.6-1.6s1.6.7,1.6,1.6-.7,1.6-1.6,1.6-1.6-.7-1.6-1.6Z"/>
        <path class="st9" d="M360.2,198.5v-6.6c0-1,.7-1.9,1.6-1.9h3.3c.9,0,1.6.9,1.6,1.9v6.6c0,1-.7,1.9-1.6,1.9h-3.3c-.9,0-1.6-.8-1.6-1.9Z"/>
        <path class="st9" d="M359.8,246.4v-6.6c0-1,.8-1.9,1.7-1.9h3.5c.9,0,1.7.9,1.7,1.9v6.6c0,1-.8,1.9-1.7,1.9h-3.5c-.9,0-1.7-.9-1.7-1.9Z"/>
        <path class="st9" d="M111.8,252c0-1.5,1.3-2.8,2.8-2.8h15.5c1.5,0,2.8,1.3,2.8,2.8v.5c0,1.5-1.3,2.8-2.8,2.8h-15.5c-1.6,0-2.8-1.3-2.8-2.8v-.5Z"/>
        <polyline class="st8" points="423.3 262.1 428.1 205.4 432.9 197.5"/>
        <line class="st8" x1="436.7" y1="154.7" x2="462.1" y2="158.4"/>
        <line class="st8" x1="439.2" y1="159" x2="457.6" y2="161.8"/>
        <polyline class="st8" points="432.4 146.2 444.3 143.6 446.3 137.1"/>
        <polyline class="st8" points="430.3 140 437.7 138.1 438 136.1"/>
        <path class="st8" d="M442.3,260.2l4.5.3c5.3-.4,9.8,3.8,9.9,9.2v142.4c0,10.3-8.5,18.8-18.8,18.8h-32.9c-10.3,0-18.8-8.4-18.8-18.8l.2-86.2"/>
        <path class="st8" d="M103.5,42.9s243.6-1.6,256.6-.7c0,0,18.6-.4,23.3,15.8l15.4,107.3v.3l-33.7.3h-.2"/>
        <path class="st8" d="M398.9,165.4l.4.4c1.7,1.9,8.4,9.9,8.9,13.2,0,0,7.2-.9,9.3,4.6l-.3,39.1s-3.5,6.4-6.1,6.4v33.6l-4.1,4.1h-39.4"/>
        <path class="st8" d="M42.9,261.9l-10.3-2c-2.8-.5-4.8-3.2-4.5-6l5-49.5v-.4l4.9-8.6,8.1-3.9"/>
        <line class="st8" x1="33.6" y1="204.4" x2="45.7" y2="199.3"/>
        <path class="st8" d="M54.1,288.7h71.4l11.3,27.7s-44.4.8-66.6,0c-4.5-.2-9.6,0-13.1-2.8-2.6-2-2.5-6.1-2.8-9.4-.6-5.1,0-15.5,0-15.5h-.2Z"/>
        <path class="st8" d="M410.8,288.7h-71.4l-11.3,27.7s44.5.8,66.7,0c4.5-.2,9.6,0,13.1-2.8,2.6-2,2.5-6.1,2.8-9.4.6-5.1,0-15.5,0-15.5h.1Z"/>
        <polyline class="st8" points="399.7 165.8 418.2 150.3 430.3 140"/>
        <path class="st8" d="M327.9,187.3h28c1.8,0,3.3,1.5,3.3,3.3v9.4c0,1.8-1.5,3.3-3.3,3.3h-26.3"/>
        <path class="st9" d="M418.2,150.3s2.1,5,4.4,9.8c1,2.2,2.1,4.3,3,5.9,1.5,2.7,2.7,5.5,3.4,8.5,1.3,5.6,3.5,15.8,3.3,22.2"/>
        <path class="st9" d="M420.8,166.9l-6.3,5.7c-.9.8-2.4.8-3.2-.2-.4-.4-.6-1-.6-1.5s.3-1.2.8-1.7l6.3-5.7c.9-.9,2.4-.8,3.2.2.4.4.6,1,.6,1.5s-.2,1.2-.8,1.7Z"/>
        <path class="st3" d="M433.1,153.5c.1.3.1.5.1.8,0,.6-.3,1.3-.8,1.7l-4.4,4c-.9.8-2.4.8-3.2-.2-.1-.1-.2-.2-.3-.4-.2-.4-.3-.8-.3-1.2,0-.6.2-1.2.8-1.7l4.4-4c.9-.8,2.4-.8,3.2.2.2.2.3.5.4.7h0Z"/>
        <polyline class="st8" points="453 208.7 457.4 162.3 457.8 162 462.1 158.4 464.2 188.6 460.7 190 459.7 177.6 456.6 234.7 453 209.1 452.7 208.9 450.9 206.9 446.4 205.5"/>
        <ellipse class="st4" cx="235.8" cy="204" rx="82.7" ry="80.5"/>
        <ellipse class="st7" cx="235.8" cy="204" rx="93.4" ry="90.8"/>
      </g>
    </g>
  </g>
  <g id="Layer_2">
    <rect id="CAR_x5F_03_right_taillight" class="st5" x="376.5" y="183" width="37.6" height="40.4" rx="4.7" ry="4.7"/>
    <rect id="CAR_x5F_03_right_taillight_lens" class="st5" x="380.3" y="186.8" width="30" height="32.9" rx="3.3" ry="3.3"/>
    <rect id="CAR_x5F_03_right_taillight_bar" class="st6" x="383.6" y="200.9" width="23.5" height="5.2" rx="1.4" ry="1.4"/>
    <rect id="CAR_x5F_03_right_taillight_rim" class="st-rim" x="376.5" y="183" width="37.6" height="40.4" rx="4.7" ry="4.7"/>
    <rect id="CAR_x5F_03_left_taillight" class="st5" x="51.7" y="183" width="37.6" height="40.4" rx="4.7" ry="4.7"/>
    <rect id="CAR_x5F_03_left_taillight_lens" class="st5" x="55.5" y="186.8" width="30" height="32.9" rx="3.3" ry="3.3"/>
    <rect id="CAR_x5F_03_left_taillight_bar" class="st6" x="58.8" y="200.9" width="23.5" height="5.2" rx="1.4" ry="1.4"/>
    <rect id="CAR_x5F_03_left_taillight_rim" class="st-rim" x="51.7" y="183" width="37.6" height="40.4" rx="4.7" ry="4.7"/>
  </g>
  <ellipse class="st2" cx="235.8" cy="204" rx="69.8" ry="67.9"/>
</svg>
